<svg xmlns="http://www.w3.org/2000/svg" xmlns:xlink="http://www.w3.org/1999/xlink" width="500" zoomAndPan="magnify" viewBox="0 0 375 374.999991" height="500" preserveAspectRatio="xMidYMid meet" version="1.0"><defs><g/><clipPath id="2bafbec1a1"><path d="M 129.539062 106 L 246.539062 106 L 246.539062 139.179688 L 129.539062 139.179688 Z M 129.539062 106 " clip-rule="nonzero"/></clipPath><clipPath id="85d8bcea4d"><path d="M 186 69.429688 L 190 69.429688 L 190 120 L 186 120 Z M 186 69.429688 " clip-rule="nonzero"/></clipPath></defs><g fill="#f9f7f1" fill-opacity="1"><g transform="translate(93.036757, 182.886139)"><g><path d="M 2.484375 -34.15625 L 13.078125 -34.15625 C 16.285156 -34.15625 18.835938 -33.472656 20.734375 -32.109375 C 22.640625 -30.742188 23.59375 -28.53125 23.59375 -25.46875 C 23.59375 -22.039062 22.175781 -19.597656 19.34375 -18.140625 C 24.195312 -17.285156 26.625 -14.410156 26.625 -9.515625 C 26.625 -6.648438 25.628906 -4.347656 23.640625 -2.609375 C 21.648438 -0.867188 18.914062 0 15.4375 0 L 2.484375 0 Z M 10.265625 -20.78125 L 10.890625 -20.78125 C 12.628906 -20.78125 13.925781 -21.082031 14.78125 -21.6875 C 15.632812 -22.300781 16.0625 -23.296875 16.0625 -24.671875 C 16.0625 -26.992188 14.335938 -28.15625 10.890625 -28.15625 L 10.265625 -28.15625 Z M 10.265625 -6 L 12.71875 -6 C 16.519531 -6 18.421875 -7.269531 18.421875 -9.8125 C 18.421875 -11.332031 17.941406 -12.421875 16.984375 -13.078125 C 16.035156 -13.742188 14.613281 -14.078125 12.71875 -14.078125 L 10.265625 -14.078125 Z M 10.265625 -6 "/></g></g></g><g fill="#f9f7f1" fill-opacity="1"><g transform="translate(120.61125, 182.886139)"><g><path d="M 10.265625 -34.15625 L 10.265625 0 L 2.484375 0 L 2.484375 -34.15625 Z M 10.265625 -34.15625 "/></g></g><g transform="translate(133.363419, 182.886139)"><g><path d="M 2.484375 -34.15625 L 13.078125 -34.15625 C 16.285156 -34.15625 18.835938 -33.472656 20.734375 -32.109375 C 22.640625 -30.742188 23.59375 -28.53125 23.59375 -25.46875 C 23.59375 -22.039062 22.175781 -19.597656 19.34375 -18.140625 C 24.195312 -17.285156 26.625 -14.410156 26.625 -9.515625 C 26.625 -6.648438 25.628906 -4.347656 23.640625 -2.609375 C 21.648438 -0.867188 18.914062 0 15.4375 0 L 2.484375 0 Z M 10.265625 -20.78125 L 10.890625 -20.78125 C 12.628906 -20.78125 13.925781 -21.082031 14.78125 -21.6875 C 15.632812 -22.300781 16.0625 -23.296875 16.0625 -24.671875 C 16.0625 -26.992188 14.335938 -28.15625 10.890625 -28.15625 L 10.265625 -28.15625 Z M 10.265625 -6 L 12.71875 -6 C 16.519531 -6 18.421875 -7.269531 18.421875 -9.8125 C 18.421875 -11.332031 17.941406 -12.421875 16.984375 -13.078125 C 16.035156 -13.742188 14.613281 -14.078125 12.71875 -14.078125 L 10.265625 -14.078125 Z M 10.265625 -6 "/></g></g></g><g fill="#f9f7f1" fill-opacity="1"><g transform="translate(160.937912, 182.886139)"><g><path d="M 10.265625 -34.15625 L 10.265625 -6.828125 L 22.03125 -6.828125 L 22.03125 0 L 2.484375 0 L 2.484375 -34.15625 Z M 10.265625 -34.15625 "/></g></g><g transform="translate(184.330691, 182.886139)"><g><path d="M 22.03125 -34.15625 L 22.03125 -27.328125 L 10.265625 -27.328125 L 10.265625 -20.53125 L 21.53125 -20.53125 L 21.53125 -13.703125 L 10.265625 -13.703125 L 10.265625 -6.828125 L 22.03125 -6.828125 L 22.03125 0 L 2.484375 0 L 2.484375 -34.15625 Z M 22.03125 -34.15625 "/></g></g></g><g fill="#f9f7f1" fill-opacity="1"><g transform="translate(208.344509, 182.886139)"><g><path d="M 15.078125 -34.78125 C 16.921875 -34.78125 18.722656 -34.507812 20.484375 -33.96875 C 22.253906 -33.4375 23.566406 -32.90625 24.421875 -32.375 L 25.671875 -31.546875 L 22.53125 -25.34375 C 22.28125 -25.507812 21.929688 -25.722656 21.484375 -25.984375 C 21.046875 -26.242188 20.21875 -26.59375 19 -27.03125 C 17.789062 -27.476562 16.660156 -27.703125 15.609375 -27.703125 C 14.304688 -27.703125 13.300781 -27.425781 12.59375 -26.875 C 11.894531 -26.320312 11.546875 -25.578125 11.546875 -24.640625 C 11.546875 -24.171875 11.710938 -23.734375 12.046875 -23.328125 C 12.378906 -22.929688 12.945312 -22.503906 13.75 -22.046875 C 14.550781 -21.585938 15.253906 -21.21875 15.859375 -20.9375 C 16.460938 -20.664062 17.398438 -20.253906 18.671875 -19.703125 C 20.878906 -18.765625 22.765625 -17.488281 24.328125 -15.875 C 25.890625 -14.257812 26.671875 -12.429688 26.671875 -10.390625 C 26.671875 -8.429688 26.316406 -6.71875 25.609375 -5.25 C 24.898438 -3.789062 23.929688 -2.644531 22.703125 -1.8125 C 21.484375 -0.988281 20.125 -0.378906 18.625 0.015625 C 17.132812 0.421875 15.519531 0.625 13.78125 0.625 C 12.289062 0.625 10.828125 0.46875 9.390625 0.15625 C 7.960938 -0.144531 6.765625 -0.519531 5.796875 -0.96875 C 4.828125 -1.425781 3.957031 -1.875 3.1875 -2.3125 C 2.414062 -2.757812 1.847656 -3.132812 1.484375 -3.4375 L 0.953125 -3.890625 L 4.84375 -10.4375 C 5.175781 -10.15625 5.628906 -9.800781 6.203125 -9.375 C 6.785156 -8.945312 7.816406 -8.375 9.296875 -7.65625 C 10.773438 -6.9375 12.078125 -6.578125 13.203125 -6.578125 C 16.492188 -6.578125 18.140625 -7.695312 18.140625 -9.9375 C 18.140625 -10.40625 18.019531 -10.835938 17.78125 -11.234375 C 17.550781 -11.640625 17.140625 -12.039062 16.546875 -12.4375 C 15.953125 -12.84375 15.425781 -13.160156 14.96875 -13.390625 C 14.507812 -13.628906 13.757812 -13.988281 12.71875 -14.46875 C 11.6875 -14.957031 10.925781 -15.320312 10.4375 -15.5625 C 8.363281 -16.582031 6.757812 -17.859375 5.625 -19.390625 C 4.5 -20.929688 3.9375 -22.582031 3.9375 -24.34375 C 3.9375 -27.40625 5.066406 -29.910156 7.328125 -31.859375 C 9.585938 -33.804688 12.171875 -34.78125 15.078125 -34.78125 Z M 15.078125 -34.78125 "/></g></g></g><g fill="#f9f7f1" fill-opacity="1"><g transform="translate(236.167431, 182.886139)"><g/></g></g><g fill="#f9f7f1" fill-opacity="1"><g transform="translate(247.470488, 182.886139)"><g><path d="M 1.203125 -8.984375 C 1.203125 -10.003906 1.4375 -10.984375 1.90625 -11.921875 C 2.375 -12.859375 3.035156 -13.710938 3.890625 -14.484375 C 4.742188 -15.265625 5.613281 -15.941406 6.5 -16.515625 C 7.382812 -17.097656 8.390625 -17.691406 9.515625 -18.296875 C 7.234375 -21.171875 6.09375 -23.695312 6.09375 -25.875 C 6.09375 -28.582031 7.035156 -30.742188 8.921875 -32.359375 C 10.816406 -33.972656 13.5 -34.78125 16.96875 -34.78125 C 20.175781 -34.78125 22.671875 -33.878906 24.453125 -32.078125 C 26.234375 -30.285156 27.125 -28.21875 27.125 -25.875 C 27.125 -24.90625 26.890625 -23.957031 26.421875 -23.03125 C 25.953125 -22.113281 25.390625 -21.328125 24.734375 -20.671875 C 24.085938 -20.023438 23.429688 -19.453125 22.765625 -18.953125 C 22.109375 -18.460938 21.546875 -18.09375 21.078125 -17.84375 L 20.375 -17.46875 L 24.921875 -12.75 C 25.921875 -13.195312 27.59375 -14.632812 29.9375 -17.0625 L 34.734375 -12.34375 C 33.191406 -10.570312 31.578125 -9.007812 29.890625 -7.65625 L 37.265625 0 L 27.453125 0 L 24.0625 -3.515625 C 23.007812 -2.773438 22.234375 -2.242188 21.734375 -1.921875 C 21.242188 -1.609375 20.503906 -1.203125 19.515625 -0.703125 C 18.535156 -0.203125 17.53125 0.140625 16.5 0.328125 C 15.46875 0.523438 14.328125 0.625 13.078125 0.625 C 12.003906 0.625 10.941406 0.53125 9.890625 0.34375 C 8.847656 0.164062 7.796875 -0.144531 6.734375 -0.59375 C 5.671875 -1.050781 4.738281 -1.625 3.9375 -2.3125 C 3.132812 -3.007812 2.476562 -3.929688 1.96875 -5.078125 C 1.457031 -6.222656 1.203125 -7.523438 1.203125 -8.984375 Z M 16.96875 -29.28125 C 15.976562 -29.28125 15.234375 -28.960938 14.734375 -28.328125 C 14.242188 -27.691406 14 -26.875 14 -25.875 C 14 -25.300781 14.203125 -24.660156 14.609375 -23.953125 C 15.023438 -23.242188 15.441406 -22.6875 15.859375 -22.28125 L 16.484375 -21.703125 C 19.015625 -23.078125 20.28125 -24.46875 20.28125 -25.875 C 20.28125 -28.144531 19.175781 -29.28125 16.96875 -29.28125 Z M 19 -8.6875 L 13.578125 -14.03125 C 13.492188 -14.007812 13.367188 -13.960938 13.203125 -13.890625 C 13.035156 -13.816406 12.742188 -13.648438 12.328125 -13.390625 C 11.921875 -13.128906 11.566406 -12.835938 11.265625 -12.515625 C 10.960938 -12.203125 10.675781 -11.78125 10.40625 -11.25 C 10.144531 -10.726562 10.015625 -10.179688 10.015625 -9.609375 C 10.015625 -8.691406 10.398438 -7.984375 11.171875 -7.484375 C 11.953125 -6.992188 12.851562 -6.75 13.875 -6.75 C 14.695312 -6.75 15.535156 -6.90625 16.390625 -7.21875 C 17.253906 -7.539062 17.90625 -7.867188 18.34375 -8.203125 Z M 19 -8.6875 "/></g></g></g><g fill="#f9f7f1" fill-opacity="1"><g transform="translate(92.621852, 232.500037)"><g><path d="M 17.34375 -34.15625 L 17.34375 -9.640625 C 17.34375 -6.304688 16.425781 -3.757812 14.59375 -2 C 12.757812 -0.25 10.128906 0.625 6.703125 0.625 C 5.796875 0.625 4.898438 0.507812 4.015625 0.28125 C 3.128906 0.0625 2.382812 -0.203125 1.78125 -0.515625 C 1.175781 -0.835938 0.628906 -1.160156 0.140625 -1.484375 C -0.335938 -1.816406 -0.6875 -2.09375 -0.90625 -2.3125 L -1.28125 -2.65625 L 1.203125 -9.15625 C 2.828125 -7.601562 4.300781 -6.828125 5.625 -6.828125 C 6.8125 -6.828125 7.765625 -7.21875 8.484375 -8 C 9.203125 -8.789062 9.5625 -10.003906 9.5625 -11.640625 L 9.5625 -34.15625 Z M 17.34375 -34.15625 "/></g></g></g><g fill="#f9f7f1" fill-opacity="1"><g transform="translate(112.039926, 232.500037)"><g><path d="M 10.265625 -34.15625 L 10.265625 0 L 2.484375 0 L 2.484375 -34.15625 Z M 10.265625 -34.15625 "/></g></g><g transform="translate(124.792095, 232.500037)"><g><path d="M 28.734375 -34.15625 L 28.734375 -12.125 C 28.734375 -7.9375 27.597656 -4.765625 25.328125 -2.609375 C 23.066406 -0.453125 19.753906 0.625 15.390625 0.625 C 11.035156 0.625 7.722656 -0.453125 5.453125 -2.609375 C 3.191406 -4.765625 2.0625 -7.9375 2.0625 -12.125 L 2.0625 -34.15625 L 9.859375 -34.15625 L 9.859375 -14.40625 C 9.859375 -11.644531 10.289062 -9.722656 11.15625 -8.640625 C 12.03125 -7.566406 13.445312 -7.03125 15.40625 -7.03125 C 17.363281 -7.03125 18.773438 -7.566406 19.640625 -8.640625 C 20.515625 -9.722656 20.953125 -11.644531 20.953125 -14.40625 L 20.953125 -34.15625 Z M 28.734375 -34.15625 "/></g></g><g transform="translate(155.596037, 232.500037)"><g/></g></g><g fill="#f9f7f1" fill-opacity="1"><g transform="translate(166.899095, 232.500037)"><g><path d="M 17.34375 -34.15625 L 17.34375 -9.640625 C 17.34375 -6.304688 16.425781 -3.757812 14.59375 -2 C 12.757812 -0.25 10.128906 0.625 6.703125 0.625 C 5.796875 0.625 4.898438 0.507812 4.015625 0.28125 C 3.128906 0.0625 2.382812 -0.203125 1.78125 -0.515625 C 1.175781 -0.835938 0.628906 -1.160156 0.140625 -1.484375 C -0.335938 -1.816406 -0.6875 -2.09375 -0.90625 -2.3125 L -1.28125 -2.65625 L 1.203125 -9.15625 C 2.828125 -7.601562 4.300781 -6.828125 5.625 -6.828125 C 6.8125 -6.828125 7.765625 -7.21875 8.484375 -8 C 9.203125 -8.789062 9.5625 -10.003906 9.5625 -11.640625 L 9.5625 -34.15625 Z M 17.34375 -34.15625 "/></g></g></g><g fill="#f9f7f1" fill-opacity="1"><g transform="translate(186.317163, 232.500037)"><g><path d="M 10.265625 -34.15625 L 10.265625 0 L 2.484375 0 L 2.484375 -34.15625 Z M 10.265625 -34.15625 "/></g></g></g><g fill="#f9f7f1" fill-opacity="1"><g transform="translate(199.069328, 232.500037)"><g><path d="M 0.328125 -27.328125 L 0.328125 -34.15625 L 24.34375 -34.15625 L 24.34375 -27.328125 L 16.234375 -27.328125 L 16.234375 0 L 8.453125 0 L 8.453125 -27.328125 Z M 0.328125 -27.328125 "/></g></g></g><g fill="#f9f7f1" fill-opacity="1"><g transform="translate(223.745596, 232.500037)"><g><path d="M 15.078125 -34.78125 C 16.921875 -34.78125 18.722656 -34.507812 20.484375 -33.96875 C 22.253906 -33.4375 23.566406 -32.90625 24.421875 -32.375 L 25.671875 -31.546875 L 22.53125 -25.34375 C 22.28125 -25.507812 21.929688 -25.722656 21.484375 -25.984375 C 21.046875 -26.242188 20.21875 -26.59375 19 -27.03125 C 17.789062 -27.476562 16.660156 -27.703125 15.609375 -27.703125 C 14.304688 -27.703125 13.300781 -27.425781 12.59375 -26.875 C 11.894531 -26.320312 11.546875 -25.578125 11.546875 -24.640625 C 11.546875 -24.171875 11.710938 -23.734375 12.046875 -23.328125 C 12.378906 -22.929688 12.945312 -22.503906 13.75 -22.046875 C 14.550781 -21.585938 15.253906 -21.21875 15.859375 -20.9375 C 16.460938 -20.664062 17.398438 -20.253906 18.671875 -19.703125 C 20.878906 -18.765625 22.765625 -17.488281 24.328125 -15.875 C 25.890625 -14.257812 26.671875 -12.429688 26.671875 -10.390625 C 26.671875 -8.429688 26.316406 -6.71875 25.609375 -5.25 C 24.898438 -3.789062 23.929688 -2.644531 22.703125 -1.8125 C 21.484375 -0.988281 20.125 -0.378906 18.625 0.015625 C 17.132812 0.421875 15.519531 0.625 13.78125 0.625 C 12.289062 0.625 10.828125 0.46875 9.390625 0.15625 C 7.960938 -0.144531 6.765625 -0.519531 5.796875 -0.96875 C 4.828125 -1.425781 3.957031 -1.875 3.1875 -2.3125 C 2.414062 -2.757812 1.847656 -3.132812 1.484375 -3.4375 L 0.953125 -3.890625 L 4.84375 -10.4375 C 5.175781 -10.15625 5.628906 -9.800781 6.203125 -9.375 C 6.785156 -8.945312 7.816406 -8.375 9.296875 -7.65625 C 10.773438 -6.9375 12.078125 -6.578125 13.203125 -6.578125 C 16.492188 -6.578125 18.140625 -7.695312 18.140625 -9.9375 C 18.140625 -10.40625 18.019531 -10.835938 17.78125 -11.234375 C 17.550781 -11.640625 17.140625 -12.039062 16.546875 -12.4375 C 15.953125 -12.84375 15.425781 -13.160156 14.96875 -13.390625 C 14.507812 -13.628906 13.757812 -13.988281 12.71875 -14.46875 C 11.6875 -14.957031 10.925781 -15.320312 10.4375 -15.5625 C 8.363281 -16.582031 6.757812 -17.859375 5.625 -19.390625 C 4.5 -20.929688 3.9375 -22.582031 3.9375 -24.34375 C 3.9375 -27.40625 5.066406 -29.910156 7.328125 -31.859375 C 9.585938 -33.804688 12.171875 -34.78125 15.078125 -34.78125 Z M 15.078125 -34.78125 "/></g></g></g><g fill="#f9f7f1" fill-opacity="1"><g transform="translate(251.568517, 232.500037)"><g><path d="M 28.734375 -34.15625 L 28.734375 -12.125 C 28.734375 -7.9375 27.597656 -4.765625 25.328125 -2.609375 C 23.066406 -0.453125 19.753906 0.625 15.390625 0.625 C 11.035156 0.625 7.722656 -0.453125 5.453125 -2.609375 C 3.191406 -4.765625 2.0625 -7.9375 2.0625 -12.125 L 2.0625 -34.15625 L 9.859375 -34.15625 L 9.859375 -14.40625 C 9.859375 -11.644531 10.289062 -9.722656 11.15625 -8.640625 C 12.03125 -7.566406 13.445312 -7.03125 15.40625 -7.03125 C 17.363281 -7.03125 18.773438 -7.566406 19.640625 -8.640625 C 20.515625 -9.722656 20.953125 -11.644531 20.953125 -14.40625 L 20.953125 -34.15625 Z M 28.734375 -34.15625 "/></g></g></g><g clip-path="url(#2bafbec1a1)"><path fill="#f9f7f1" d="M 129.539062 139.394531 L 138.148438 129.597656 L 144.308594 129.597656 L 150.734375 124.660156 L 155.097656 119.726562 L 159.6875 119.726562 L 163.128906 115.144531 L 172.996094 113.378906 C 172.996094 113.378906 182.226562 105.6875 185.398438 106.546875 C 192.902344 108.578125 188.8125 104.796875 202.460938 112.421875 C 206.804688 114.851562 212.25 117.691406 214.003906 118.425781 C 215.761719 119.160156 222.554688 119.28125 222.554688 119.28125 L 229.730469 125.160156 L 234.671875 128.835938 L 239.296875 132.753906 L 242.648438 133 L 246.632812 139.394531 Z M 129.539062 139.394531 " fill-opacity="1" fill-rule="nonzero"/></g><g clip-path="url(#85d8bcea4d)"><path fill="#f9f7f1" d="M 186.425781 69.4375 L 189.746094 69.4375 L 189.746094 119.3125 L 186.425781 119.3125 Z M 186.425781 69.4375 " fill-opacity="1" fill-rule="nonzero"/></g><path fill="#f9f7f1" d="M 174.566406 82.8125 L 174.566406 79.492188 L 201.605469 79.492188 L 201.605469 82.8125 Z M 174.566406 82.8125 " fill-opacity="1" fill-rule="nonzero"/><path fill="#f9f7f1" d="M 160.605469 86.734375 L 163.046875 86.734375 L 163.046875 123.445312 L 160.605469 123.445312 Z M 160.605469 86.734375 " fill-opacity="1" fill-rule="nonzero"/><path fill="#f9f7f1" d="M 151.875 96.578125 L 151.875 94.136719 L 171.777344 94.136719 L 171.777344 96.578125 Z M 151.875 96.578125 " fill-opacity="1" fill-rule="nonzero"/><path fill="#f9f7f1" d="M 213.441406 86.734375 L 215.882812 86.734375 L 215.882812 123.445312 L 213.441406 123.445312 Z M 213.441406 86.734375 " fill-opacity="1" fill-rule="nonzero"/><path fill="#f9f7f1" d="M 204.710938 96.578125 L 204.710938 94.136719 L 224.613281 94.136719 L 224.613281 96.578125 Z M 204.710938 96.578125 " fill-opacity="1" fill-rule="nonzero"/><g fill="#f9f7f1" fill-opacity="1"><g transform="translate(126.345784, 252.643562)"><g><path d="M 2.28125 -1.28125 C 2.28125 -1.070312 2.289062 -0.90625 2.3125 -0.78125 C 2.34375 -0.664062 2.398438 -0.570312 2.484375 -0.5 C 2.566406 -0.4375 2.679688 -0.390625 2.828125 -0.359375 C 2.984375 -0.335938 3.1875 -0.320312 3.4375 -0.3125 L 3.4375 0 L 0.28125 0 L 0.28125 -0.3125 C 0.457031 -0.320312 0.597656 -0.335938 0.703125 -0.359375 C 0.816406 -0.390625 0.898438 -0.4375 0.953125 -0.5 C 1.015625 -0.5625 1.054688 -0.648438 1.078125 -0.765625 C 1.097656 -0.878906 1.109375 -1.03125 1.109375 -1.21875 L 1.109375 -4.890625 C 1.109375 -5.078125 1.097656 -5.226562 1.078125 -5.34375 C 1.066406 -5.457031 1.03125 -5.546875 0.96875 -5.609375 C 0.914062 -5.671875 0.84375 -5.710938 0.75 -5.734375 C 0.65625 -5.765625 0.523438 -5.785156 0.359375 -5.796875 L 0.359375 -6.109375 L 5.21875 -6.109375 L 5.3125 -4.4375 L 4.984375 -4.4375 C 4.953125 -4.664062 4.90625 -4.859375 4.84375 -5.015625 C 4.78125 -5.171875 4.691406 -5.296875 4.578125 -5.390625 C 4.472656 -5.492188 4.332031 -5.566406 4.15625 -5.609375 C 3.976562 -5.648438 3.765625 -5.671875 3.515625 -5.671875 L 2.421875 -5.671875 C 2.328125 -5.671875 2.28125 -5.625 2.28125 -5.53125 L 2.28125 -3.234375 C 2.601562 -3.234375 2.863281 -3.242188 3.0625 -3.265625 C 3.269531 -3.296875 3.429688 -3.347656 3.546875 -3.421875 C 3.671875 -3.503906 3.757812 -3.609375 3.8125 -3.734375 C 3.863281 -3.867188 3.898438 -4.046875 3.921875 -4.265625 L 4.21875 -4.265625 L 4.21875 -1.78125 L 3.921875 -1.78125 C 3.890625 -2.007812 3.84375 -2.191406 3.78125 -2.328125 C 3.726562 -2.460938 3.640625 -2.5625 3.515625 -2.625 C 3.398438 -2.695312 3.242188 -2.742188 3.046875 -2.765625 C 2.847656 -2.796875 2.59375 -2.8125 2.28125 -2.8125 Z M 2.28125 -1.28125 "/></g></g></g><g fill="#f9f7f1" fill-opacity="1"><g transform="translate(133.397039, 252.643562)"><g><path d="M 3.984375 -1.84375 L 1.734375 -1.84375 C 1.484375 -1.289062 1.359375 -0.90625 1.359375 -0.6875 C 1.359375 -0.519531 1.414062 -0.414062 1.53125 -0.375 C 1.65625 -0.332031 1.835938 -0.3125 2.078125 -0.3125 L 2.078125 0 L -0.109375 0 L -0.109375 -0.3125 C 0.0234375 -0.332031 0.132812 -0.351562 0.21875 -0.375 C 0.3125 -0.40625 0.394531 -0.441406 0.46875 -0.484375 C 0.539062 -0.535156 0.601562 -0.597656 0.65625 -0.671875 C 0.707031 -0.753906 0.757812 -0.847656 0.8125 -0.953125 L 2.890625 -6.1875 L 3.484375 -6.1875 L 5.375 -1.5625 C 5.488281 -1.289062 5.582031 -1.078125 5.65625 -0.921875 C 5.738281 -0.765625 5.820312 -0.644531 5.90625 -0.5625 C 6 -0.476562 6.097656 -0.421875 6.203125 -0.390625 C 6.316406 -0.359375 6.46875 -0.335938 6.65625 -0.328125 L 6.65625 0 L 3.65625 0 L 3.65625 -0.328125 C 3.90625 -0.335938 4.082031 -0.363281 4.1875 -0.40625 C 4.300781 -0.445312 4.359375 -0.53125 4.359375 -0.65625 C 4.359375 -0.726562 4.335938 -0.820312 4.296875 -0.9375 C 4.265625 -1.0625 4.21875 -1.207031 4.15625 -1.375 Z M 1.90625 -2.328125 L 3.796875 -2.328125 L 2.890625 -4.734375 L 2.859375 -4.734375 Z M 1.90625 -2.328125 "/></g></g></g><g fill="#f9f7f1" fill-opacity="1"><g transform="translate(141.4001, 252.643562)"><g><path d="M 3.125 0 L 0.28125 0 L 0.28125 -0.3125 C 0.46875 -0.320312 0.613281 -0.335938 0.71875 -0.359375 C 0.820312 -0.390625 0.90625 -0.445312 0.96875 -0.53125 C 1.03125 -0.613281 1.070312 -0.726562 1.09375 -0.875 C 1.113281 -1.019531 1.125 -1.210938 1.125 -1.453125 L 1.125 -4.65625 C 1.125 -4.875 1.113281 -5.054688 1.09375 -5.203125 C 1.070312 -5.347656 1.035156 -5.460938 0.984375 -5.546875 C 0.929688 -5.628906 0.851562 -5.6875 0.75 -5.71875 C 0.65625 -5.757812 0.523438 -5.785156 0.359375 -5.796875 L 0.359375 -6.109375 L 3.046875 -6.109375 L 3.046875 -5.796875 C 2.878906 -5.785156 2.742188 -5.757812 2.640625 -5.71875 C 2.546875 -5.6875 2.472656 -5.628906 2.421875 -5.546875 C 2.367188 -5.460938 2.332031 -5.347656 2.3125 -5.203125 C 2.289062 -5.054688 2.28125 -4.875 2.28125 -4.65625 L 2.28125 -1.453125 C 2.28125 -1.210938 2.289062 -1.019531 2.3125 -0.875 C 2.332031 -0.726562 2.375 -0.613281 2.4375 -0.53125 C 2.5 -0.445312 2.582031 -0.390625 2.6875 -0.359375 C 2.789062 -0.335938 2.9375 -0.320312 3.125 -0.3125 Z M 3.125 0 "/></g></g></g><g fill="#f9f7f1" fill-opacity="1"><g transform="translate(146.389124, 252.643562)"><g><path d="M 6.46875 -4.359375 L 6.125 -4.359375 C 6.113281 -4.617188 6.078125 -4.832031 6.015625 -5 C 5.953125 -5.175781 5.863281 -5.316406 5.75 -5.421875 C 5.644531 -5.523438 5.507812 -5.597656 5.34375 -5.640625 C 5.1875 -5.679688 5.003906 -5.703125 4.796875 -5.703125 C 4.585938 -5.703125 4.421875 -5.695312 4.296875 -5.6875 C 4.171875 -5.675781 4.070312 -5.660156 4 -5.640625 C 3.9375 -5.628906 3.894531 -5.609375 3.875 -5.578125 C 3.851562 -5.546875 3.84375 -5.503906 3.84375 -5.453125 L 3.84375 -1.296875 C 3.84375 -1.128906 3.851562 -0.984375 3.875 -0.859375 C 3.90625 -0.734375 3.957031 -0.628906 4.03125 -0.546875 C 4.101562 -0.472656 4.210938 -0.414062 4.359375 -0.375 C 4.503906 -0.34375 4.691406 -0.320312 4.921875 -0.3125 L 4.921875 0 L 1.59375 0 L 1.59375 -0.3125 C 1.832031 -0.320312 2.019531 -0.34375 2.15625 -0.375 C 2.300781 -0.414062 2.410156 -0.472656 2.484375 -0.546875 C 2.566406 -0.628906 2.617188 -0.734375 2.640625 -0.859375 C 2.671875 -0.984375 2.6875 -1.128906 2.6875 -1.296875 L 2.6875 -5.453125 C 2.6875 -5.503906 2.675781 -5.546875 2.65625 -5.578125 C 2.632812 -5.609375 2.59375 -5.628906 2.53125 -5.640625 C 2.476562 -5.660156 2.394531 -5.675781 2.28125 -5.6875 C 2.175781 -5.695312 2.035156 -5.703125 1.859375 -5.703125 C 1.671875 -5.703125 1.488281 -5.691406 1.3125 -5.671875 C 1.144531 -5.648438 0.992188 -5.59375 0.859375 -5.5 C 0.722656 -5.414062 0.613281 -5.285156 0.53125 -5.109375 C 0.445312 -4.929688 0.40625 -4.679688 0.40625 -4.359375 L 0.09375 -4.359375 L 0.171875 -6.109375 L 6.390625 -6.109375 Z M 6.46875 -4.359375 "/></g></g></g><g fill="#f9f7f1" fill-opacity="1"><g transform="translate(154.534957, 252.643562)"><g><path d="M 6.390625 -1.28125 C 6.390625 -1.070312 6.394531 -0.90625 6.40625 -0.78125 C 6.425781 -0.664062 6.46875 -0.570312 6.53125 -0.5 C 6.59375 -0.4375 6.675781 -0.390625 6.78125 -0.359375 C 6.894531 -0.335938 7.039062 -0.320312 7.21875 -0.3125 L 7.21875 0 L 4.3125 0 L 4.3125 -0.3125 C 4.507812 -0.320312 4.664062 -0.335938 4.78125 -0.359375 C 4.894531 -0.390625 4.984375 -0.4375 5.046875 -0.5 C 5.117188 -0.5625 5.164062 -0.648438 5.1875 -0.765625 C 5.207031 -0.878906 5.21875 -1.03125 5.21875 -1.21875 L 5.21875 -2.875 L 2.28125 -2.875 L 2.28125 -1.28125 C 2.28125 -1.070312 2.289062 -0.90625 2.3125 -0.78125 C 2.332031 -0.664062 2.375 -0.570312 2.4375 -0.5 C 2.5 -0.4375 2.585938 -0.390625 2.703125 -0.359375 C 2.828125 -0.335938 2.988281 -0.320312 3.1875 -0.3125 L 3.1875 0 L 0.28125 0 L 0.28125 -0.3125 C 0.457031 -0.320312 0.597656 -0.335938 0.703125 -0.359375 C 0.816406 -0.390625 0.898438 -0.4375 0.953125 -0.5 C 1.015625 -0.5625 1.054688 -0.648438 1.078125 -0.765625 C 1.097656 -0.878906 1.109375 -1.03125 1.109375 -1.21875 L 1.109375 -4.890625 C 1.109375 -5.078125 1.097656 -5.226562 1.078125 -5.34375 C 1.066406 -5.457031 1.03125 -5.546875 0.96875 -5.609375 C 0.914062 -5.671875 0.84375 -5.710938 0.75 -5.734375 C 0.65625 -5.765625 0.523438 -5.785156 0.359375 -5.796875 L 0.359375 -6.109375 L 3.109375 -6.109375 L 3.109375 -5.796875 C 2.921875 -5.785156 2.773438 -5.765625 2.671875 -5.734375 C 2.566406 -5.710938 2.484375 -5.664062 2.421875 -5.59375 C 2.359375 -5.53125 2.316406 -5.4375 2.296875 -5.3125 C 2.285156 -5.195312 2.28125 -5.035156 2.28125 -4.828125 L 2.28125 -3.375 L 5.21875 -3.375 L 5.21875 -4.890625 C 5.21875 -5.078125 5.207031 -5.226562 5.1875 -5.34375 C 5.164062 -5.457031 5.125 -5.546875 5.0625 -5.609375 C 5.007812 -5.671875 4.925781 -5.710938 4.8125 -5.734375 C 4.707031 -5.765625 4.566406 -5.785156 4.390625 -5.796875 L 4.390625 -6.109375 L 7.140625 -6.109375 L 7.140625 -5.796875 C 6.972656 -5.785156 6.84375 -5.765625 6.75 -5.734375 C 6.65625 -5.710938 6.578125 -5.664062 6.515625 -5.59375 C 6.460938 -5.53125 6.425781 -5.4375 6.40625 -5.3125 C 6.394531 -5.195312 6.390625 -5.035156 6.390625 -4.828125 Z M 6.390625 -1.28125 "/></g></g></g><g fill="#f9f7f1" fill-opacity="1"><g transform="translate(163.616724, 252.643562)"><g/></g></g><g fill="#f9f7f1" fill-opacity="1"><g transform="translate(167.312877, 252.643562)"><g><path d="M 3.125 0 L 0.28125 0 L 0.28125 -0.3125 C 0.46875 -0.320312 0.613281 -0.335938 0.71875 -0.359375 C 0.820312 -0.390625 0.90625 -0.445312 0.96875 -0.53125 C 1.03125 -0.613281 1.070312 -0.726562 1.09375 -0.875 C 1.113281 -1.019531 1.125 -1.210938 1.125 -1.453125 L 1.125 -4.65625 C 1.125 -4.875 1.113281 -5.054688 1.09375 -5.203125 C 1.070312 -5.347656 1.035156 -5.460938 0.984375 -5.546875 C 0.929688 -5.628906 0.851562 -5.6875 0.75 -5.71875 C 0.65625 -5.757812 0.523438 -5.785156 0.359375 -5.796875 L 0.359375 -6.109375 L 3.046875 -6.109375 L 3.046875 -5.796875 C 2.878906 -5.785156 2.742188 -5.757812 2.640625 -5.71875 C 2.546875 -5.6875 2.472656 -5.628906 2.421875 -5.546875 C 2.367188 -5.460938 2.332031 -5.347656 2.3125 -5.203125 C 2.289062 -5.054688 2.28125 -4.875 2.28125 -4.65625 L 2.28125 -1.453125 C 2.28125 -1.210938 2.289062 -1.019531 2.3125 -0.875 C 2.332031 -0.726562 2.375 -0.613281 2.4375 -0.53125 C 2.5 -0.445312 2.582031 -0.390625 2.6875 -0.359375 C 2.789062 -0.335938 2.9375 -0.320312 3.125 -0.3125 Z M 3.125 0 "/></g></g></g><g fill="#f9f7f1" fill-opacity="1"><g transform="translate(172.301901, 252.643562)"><g><path d="M 5.3125 0.078125 L 1.796875 -4.921875 L 1.765625 -4.921875 L 1.765625 -1.515625 C 1.765625 -1.253906 1.773438 -1.046875 1.796875 -0.890625 C 1.816406 -0.734375 1.859375 -0.613281 1.921875 -0.53125 C 1.984375 -0.445312 2.066406 -0.390625 2.171875 -0.359375 C 2.273438 -0.335938 2.414062 -0.320312 2.59375 -0.3125 L 2.59375 0 L 0.234375 0 L 0.234375 -0.3125 C 0.429688 -0.320312 0.585938 -0.335938 0.703125 -0.359375 C 0.828125 -0.390625 0.921875 -0.445312 0.984375 -0.53125 C 1.054688 -0.613281 1.101562 -0.726562 1.125 -0.875 C 1.144531 -1.019531 1.15625 -1.210938 1.15625 -1.453125 L 1.15625 -4.65625 C 1.15625 -4.875 1.144531 -5.054688 1.125 -5.203125 C 1.101562 -5.347656 1.0625 -5.460938 1 -5.546875 C 0.9375 -5.628906 0.851562 -5.6875 0.75 -5.71875 C 0.644531 -5.757812 0.5 -5.785156 0.3125 -5.796875 L 0.3125 -6.109375 L 2.53125 -6.109375 L 5.734375 -1.53125 L 5.765625 -1.53125 L 5.765625 -4.59375 C 5.765625 -4.851562 5.753906 -5.0625 5.734375 -5.21875 C 5.710938 -5.375 5.671875 -5.492188 5.609375 -5.578125 C 5.554688 -5.660156 5.472656 -5.710938 5.359375 -5.734375 C 5.253906 -5.765625 5.113281 -5.785156 4.9375 -5.796875 L 4.9375 -6.109375 L 7.296875 -6.109375 L 7.296875 -5.796875 C 7.097656 -5.785156 6.9375 -5.765625 6.8125 -5.734375 C 6.695312 -5.710938 6.601562 -5.660156 6.53125 -5.578125 C 6.46875 -5.503906 6.425781 -5.390625 6.40625 -5.234375 C 6.382812 -5.085938 6.375 -4.894531 6.375 -4.65625 L 6.375 0.078125 Z M 5.3125 0.078125 "/></g></g></g><g fill="#f9f7f1" fill-opacity="1"><g transform="translate(181.344012, 252.643562)"><g/></g></g><g fill="#f9f7f1" fill-opacity="1"><g transform="translate(185.040164, 252.643562)"><g><path d="M 6.46875 -4.359375 L 6.125 -4.359375 C 6.113281 -4.617188 6.078125 -4.832031 6.015625 -5 C 5.953125 -5.175781 5.863281 -5.316406 5.75 -5.421875 C 5.644531 -5.523438 5.507812 -5.597656 5.34375 -5.640625 C 5.1875 -5.679688 5.003906 -5.703125 4.796875 -5.703125 C 4.585938 -5.703125 4.421875 -5.695312 4.296875 -5.6875 C 4.171875 -5.675781 4.070312 -5.660156 4 -5.640625 C 3.9375 -5.628906 3.894531 -5.609375 3.875 -5.578125 C 3.851562 -5.546875 3.84375 -5.503906 3.84375 -5.453125 L 3.84375 -1.296875 C 3.84375 -1.128906 3.851562 -0.984375 3.875 -0.859375 C 3.90625 -0.734375 3.957031 -0.628906 4.03125 -0.546875 C 4.101562 -0.472656 4.210938 -0.414062 4.359375 -0.375 C 4.503906 -0.34375 4.691406 -0.320312 4.921875 -0.3125 L 4.921875 0 L 1.59375 0 L 1.59375 -0.3125 C 1.832031 -0.320312 2.019531 -0.34375 2.15625 -0.375 C 2.300781 -0.414062 2.410156 -0.472656 2.484375 -0.546875 C 2.566406 -0.628906 2.617188 -0.734375 2.640625 -0.859375 C 2.671875 -0.984375 2.6875 -1.128906 2.6875 -1.296875 L 2.6875 -5.453125 C 2.6875 -5.503906 2.675781 -5.546875 2.65625 -5.578125 C 2.632812 -5.609375 2.59375 -5.628906 2.53125 -5.640625 C 2.476562 -5.660156 2.394531 -5.675781 2.28125 -5.6875 C 2.175781 -5.695312 2.035156 -5.703125 1.859375 -5.703125 C 1.671875 -5.703125 1.488281 -5.691406 1.3125 -5.671875 C 1.144531 -5.648438 0.992188 -5.59375 0.859375 -5.5 C 0.722656 -5.414062 0.613281 -5.285156 0.53125 -5.109375 C 0.445312 -4.929688 0.40625 -4.679688 0.40625 -4.359375 L 0.09375 -4.359375 L 0.171875 -6.109375 L 6.390625 -6.109375 Z M 6.46875 -4.359375 "/></g></g></g><g fill="#f9f7f1" fill-opacity="1"><g transform="translate(193.185999, 252.643562)"><g><path d="M 6.390625 -1.28125 C 6.390625 -1.070312 6.394531 -0.90625 6.40625 -0.78125 C 6.425781 -0.664062 6.46875 -0.570312 6.53125 -0.5 C 6.59375 -0.4375 6.675781 -0.390625 6.78125 -0.359375 C 6.894531 -0.335938 7.039062 -0.320312 7.21875 -0.3125 L 7.21875 0 L 4.3125 0 L 4.3125 -0.3125 C 4.507812 -0.320312 4.664062 -0.335938 4.78125 -0.359375 C 4.894531 -0.390625 4.984375 -0.4375 5.046875 -0.5 C 5.117188 -0.5625 5.164062 -0.648438 5.1875 -0.765625 C 5.207031 -0.878906 5.21875 -1.03125 5.21875 -1.21875 L 5.21875 -2.875 L 2.28125 -2.875 L 2.28125 -1.28125 C 2.28125 -1.070312 2.289062 -0.90625 2.3125 -0.78125 C 2.332031 -0.664062 2.375 -0.570312 2.4375 -0.5 C 2.5 -0.4375 2.585938 -0.390625 2.703125 -0.359375 C 2.828125 -0.335938 2.988281 -0.320312 3.1875 -0.3125 L 3.1875 0 L 0.28125 0 L 0.28125 -0.3125 C 0.457031 -0.320312 0.597656 -0.335938 0.703125 -0.359375 C 0.816406 -0.390625 0.898438 -0.4375 0.953125 -0.5 C 1.015625 -0.5625 1.054688 -0.648438 1.078125 -0.765625 C 1.097656 -0.878906 1.109375 -1.03125 1.109375 -1.21875 L 1.109375 -4.890625 C 1.109375 -5.078125 1.097656 -5.226562 1.078125 -5.34375 C 1.066406 -5.457031 1.03125 -5.546875 0.96875 -5.609375 C 0.914062 -5.671875 0.84375 -5.710938 0.75 -5.734375 C 0.65625 -5.765625 0.523438 -5.785156 0.359375 -5.796875 L 0.359375 -6.109375 L 3.109375 -6.109375 L 3.109375 -5.796875 C 2.921875 -5.785156 2.773438 -5.765625 2.671875 -5.734375 C 2.566406 -5.710938 2.484375 -5.664062 2.421875 -5.59375 C 2.359375 -5.53125 2.316406 -5.4375 2.296875 -5.3125 C 2.285156 -5.195312 2.28125 -5.035156 2.28125 -4.828125 L 2.28125 -3.375 L 5.21875 -3.375 L 5.21875 -4.890625 C 5.21875 -5.078125 5.207031 -5.226562 5.1875 -5.34375 C 5.164062 -5.457031 5.125 -5.546875 5.0625 -5.609375 C 5.007812 -5.671875 4.925781 -5.710938 4.8125 -5.734375 C 4.707031 -5.765625 4.566406 -5.785156 4.390625 -5.796875 L 4.390625 -6.109375 L 7.140625 -6.109375 L 7.140625 -5.796875 C 6.972656 -5.785156 6.84375 -5.765625 6.75 -5.734375 C 6.65625 -5.710938 6.578125 -5.664062 6.515625 -5.59375 C 6.460938 -5.53125 6.425781 -5.4375 6.40625 -5.3125 C 6.394531 -5.195312 6.390625 -5.035156 6.390625 -4.828125 Z M 6.390625 -1.28125 "/></g></g></g><g fill="#f9f7f1" fill-opacity="1"><g transform="translate(202.267767, 252.643562)"><g><path d="M 2.28125 -3.375 C 2.613281 -3.375 2.882812 -3.382812 3.09375 -3.40625 C 3.300781 -3.425781 3.460938 -3.46875 3.578125 -3.53125 C 3.691406 -3.601562 3.769531 -3.703125 3.8125 -3.828125 C 3.863281 -3.960938 3.898438 -4.132812 3.921875 -4.34375 L 4.21875 -4.34375 L 4.21875 -2.03125 L 3.921875 -2.03125 C 3.890625 -2.238281 3.847656 -2.40625 3.796875 -2.53125 C 3.742188 -2.65625 3.660156 -2.75 3.546875 -2.8125 C 3.429688 -2.882812 3.273438 -2.925781 3.078125 -2.9375 C 2.878906 -2.957031 2.613281 -2.96875 2.28125 -2.96875 L 2.28125 -1.34375 C 2.28125 -1.175781 2.300781 -1.03125 2.34375 -0.90625 C 2.382812 -0.789062 2.457031 -0.695312 2.5625 -0.625 C 2.675781 -0.5625 2.816406 -0.515625 2.984375 -0.484375 C 3.160156 -0.453125 3.378906 -0.4375 3.640625 -0.4375 C 3.941406 -0.4375 4.195312 -0.457031 4.40625 -0.5 C 4.613281 -0.539062 4.785156 -0.613281 4.921875 -0.71875 C 5.054688 -0.820312 5.164062 -0.960938 5.25 -1.140625 C 5.332031 -1.316406 5.40625 -1.539062 5.46875 -1.8125 L 5.78125 -1.8125 L 5.65625 0 L 0.28125 0 L 0.28125 -0.3125 C 0.457031 -0.320312 0.597656 -0.335938 0.703125 -0.359375 C 0.816406 -0.390625 0.898438 -0.4375 0.953125 -0.5 C 1.015625 -0.5625 1.054688 -0.648438 1.078125 -0.765625 C 1.097656 -0.878906 1.109375 -1.03125 1.109375 -1.21875 L 1.109375 -4.890625 C 1.109375 -5.078125 1.097656 -5.226562 1.078125 -5.34375 C 1.066406 -5.457031 1.03125 -5.546875 0.96875 -5.609375 C 0.914062 -5.671875 0.84375 -5.710938 0.75 -5.734375 C 0.65625 -5.765625 0.523438 -5.785156 0.359375 -5.796875 L 0.359375 -6.109375 L 5.375 -6.109375 L 5.4375 -4.5625 L 5.09375 -4.5625 C 5.0625 -4.78125 5.007812 -4.960938 4.9375 -5.109375 C 4.875 -5.253906 4.78125 -5.367188 4.65625 -5.453125 C 4.539062 -5.546875 4.382812 -5.609375 4.1875 -5.640625 C 3.988281 -5.671875 3.753906 -5.6875 3.484375 -5.6875 L 2.578125 -5.6875 C 2.441406 -5.6875 2.359375 -5.671875 2.328125 -5.640625 C 2.296875 -5.609375 2.28125 -5.523438 2.28125 -5.390625 Z M 2.28125 -3.375 "/></g></g></g><g fill="#f9f7f1" fill-opacity="1"><g transform="translate(209.9139, 252.643562)"><g/></g></g><g fill="#f9f7f1" fill-opacity="1"><g transform="translate(213.610053, 252.643562)"><g><path d="M 2.28125 -1.28125 C 2.28125 -1.070312 2.289062 -0.90625 2.3125 -0.78125 C 2.34375 -0.664062 2.398438 -0.570312 2.484375 -0.5 C 2.566406 -0.4375 2.679688 -0.390625 2.828125 -0.359375 C 2.984375 -0.335938 3.1875 -0.320312 3.4375 -0.3125 L 3.4375 0 L 0.28125 0 L 0.28125 -0.3125 C 0.457031 -0.320312 0.597656 -0.335938 0.703125 -0.359375 C 0.816406 -0.390625 0.898438 -0.4375 0.953125 -0.5 C 1.015625 -0.5625 1.054688 -0.648438 1.078125 -0.765625 C 1.097656 -0.878906 1.109375 -1.03125 1.109375 -1.21875 L 1.109375 -4.890625 C 1.109375 -5.078125 1.097656 -5.226562 1.078125 -5.34375 C 1.066406 -5.457031 1.03125 -5.546875 0.96875 -5.609375 C 0.914062 -5.671875 0.84375 -5.710938 0.75 -5.734375 C 0.65625 -5.765625 0.523438 -5.785156 0.359375 -5.796875 L 0.359375 -6.109375 L 5.21875 -6.109375 L 5.3125 -4.4375 L 4.984375 -4.4375 C 4.953125 -4.664062 4.90625 -4.859375 4.84375 -5.015625 C 4.78125 -5.171875 4.691406 -5.296875 4.578125 -5.390625 C 4.472656 -5.492188 4.332031 -5.566406 4.15625 -5.609375 C 3.976562 -5.648438 3.765625 -5.671875 3.515625 -5.671875 L 2.421875 -5.671875 C 2.328125 -5.671875 2.28125 -5.625 2.28125 -5.53125 L 2.28125 -3.234375 C 2.601562 -3.234375 2.863281 -3.242188 3.0625 -3.265625 C 3.269531 -3.296875 3.429688 -3.347656 3.546875 -3.421875 C 3.671875 -3.503906 3.757812 -3.609375 3.8125 -3.734375 C 3.863281 -3.867188 3.898438 -4.046875 3.921875 -4.265625 L 4.21875 -4.265625 L 4.21875 -1.78125 L 3.921875 -1.78125 C 3.890625 -2.007812 3.84375 -2.191406 3.78125 -2.328125 C 3.726562 -2.460938 3.640625 -2.5625 3.515625 -2.625 C 3.398438 -2.695312 3.242188 -2.742188 3.046875 -2.765625 C 2.847656 -2.796875 2.59375 -2.8125 2.28125 -2.8125 Z M 2.28125 -1.28125 "/></g></g></g><g fill="#f9f7f1" fill-opacity="1"><g transform="translate(220.661303, 252.643562)"><g><path d="M 3.125 0 L 0.28125 0 L 0.28125 -0.3125 C 0.46875 -0.320312 0.613281 -0.335938 0.71875 -0.359375 C 0.820312 -0.390625 0.90625 -0.445312 0.96875 -0.53125 C 1.03125 -0.613281 1.070312 -0.726562 1.09375 -0.875 C 1.113281 -1.019531 1.125 -1.210938 1.125 -1.453125 L 1.125 -4.65625 C 1.125 -4.875 1.113281 -5.054688 1.09375 -5.203125 C 1.070312 -5.347656 1.035156 -5.460938 0.984375 -5.546875 C 0.929688 -5.628906 0.851562 -5.6875 0.75 -5.71875 C 0.65625 -5.757812 0.523438 -5.785156 0.359375 -5.796875 L 0.359375 -6.109375 L 3.046875 -6.109375 L 3.046875 -5.796875 C 2.878906 -5.785156 2.742188 -5.757812 2.640625 -5.71875 C 2.546875 -5.6875 2.472656 -5.628906 2.421875 -5.546875 C 2.367188 -5.460938 2.332031 -5.347656 2.3125 -5.203125 C 2.289062 -5.054688 2.28125 -4.875 2.28125 -4.65625 L 2.28125 -1.453125 C 2.28125 -1.210938 2.289062 -1.019531 2.3125 -0.875 C 2.332031 -0.726562 2.375 -0.613281 2.4375 -0.53125 C 2.5 -0.445312 2.582031 -0.390625 2.6875 -0.359375 C 2.789062 -0.335938 2.9375 -0.320312 3.125 -0.3125 Z M 3.125 0 "/></g></g></g><g fill="#f9f7f1" fill-opacity="1"><g transform="translate(225.650323, 252.643562)"><g><path d="M 3.484375 0.078125 C 3.003906 0.078125 2.570312 0.0078125 2.1875 -0.125 C 1.800781 -0.269531 1.472656 -0.472656 1.203125 -0.734375 C 0.941406 -0.992188 0.738281 -1.3125 0.59375 -1.6875 C 0.445312 -2.0625 0.375 -2.476562 0.375 -2.9375 C 0.375 -3.425781 0.453125 -3.867188 0.609375 -4.265625 C 0.765625 -4.660156 0.984375 -5 1.265625 -5.28125 C 1.546875 -5.570312 1.878906 -5.796875 2.265625 -5.953125 C 2.660156 -6.109375 3.097656 -6.1875 3.578125 -6.1875 C 3.898438 -6.1875 4.207031 -6.140625 4.5 -6.046875 C 4.800781 -5.960938 5.125 -5.820312 5.46875 -5.625 L 5.625 -6.109375 L 5.90625 -6.109375 L 5.90625 -4.109375 L 5.515625 -4.109375 C 5.398438 -4.597656 5.179688 -4.976562 4.859375 -5.25 C 4.546875 -5.53125 4.148438 -5.671875 3.671875 -5.671875 C 3.054688 -5.671875 2.582031 -5.4375 2.25 -4.96875 C 1.914062 -4.5 1.75 -3.847656 1.75 -3.015625 C 1.75 -2.179688 1.910156 -1.546875 2.234375 -1.109375 C 2.566406 -0.671875 3.046875 -0.453125 3.671875 -0.453125 C 4.117188 -0.453125 4.46875 -0.566406 4.71875 -0.796875 C 4.96875 -1.023438 5.09375 -1.34375 5.09375 -1.75 C 5.09375 -2 5.03125 -2.175781 4.90625 -2.28125 C 4.78125 -2.394531 4.566406 -2.46875 4.265625 -2.5 L 4.265625 -2.8125 L 6.828125 -2.8125 L 6.828125 -2.5 C 6.566406 -2.5 6.382812 -2.441406 6.28125 -2.328125 C 6.1875 -2.210938 6.140625 -2.007812 6.140625 -1.71875 L 6.140625 -0.65625 C 6.023438 -0.65625 5.925781 -0.648438 5.84375 -0.640625 C 5.769531 -0.640625 5.691406 -0.625 5.609375 -0.59375 C 5.535156 -0.570312 5.453125 -0.535156 5.359375 -0.484375 C 5.265625 -0.429688 5.144531 -0.363281 5 -0.28125 C 4.59375 -0.0390625 4.085938 0.078125 3.484375 0.078125 Z M 3.484375 0.078125 "/></g></g></g><g fill="#f9f7f1" fill-opacity="1"><g transform="translate(234.1848, 252.643562)"><g><path d="M 6.390625 -1.28125 C 6.390625 -1.070312 6.394531 -0.90625 6.40625 -0.78125 C 6.425781 -0.664062 6.46875 -0.570312 6.53125 -0.5 C 6.59375 -0.4375 6.675781 -0.390625 6.78125 -0.359375 C 6.894531 -0.335938 7.039062 -0.320312 7.21875 -0.3125 L 7.21875 0 L 4.3125 0 L 4.3125 -0.3125 C 4.507812 -0.320312 4.664062 -0.335938 4.78125 -0.359375 C 4.894531 -0.390625 4.984375 -0.4375 5.046875 -0.5 C 5.117188 -0.5625 5.164062 -0.648438 5.1875 -0.765625 C 5.207031 -0.878906 5.21875 -1.03125 5.21875 -1.21875 L 5.21875 -2.875 L 2.28125 -2.875 L 2.28125 -1.28125 C 2.28125 -1.070312 2.289062 -0.90625 2.3125 -0.78125 C 2.332031 -0.664062 2.375 -0.570312 2.4375 -0.5 C 2.5 -0.4375 2.585938 -0.390625 2.703125 -0.359375 C 2.828125 -0.335938 2.988281 -0.320312 3.1875 -0.3125 L 3.1875 0 L 0.28125 0 L 0.28125 -0.3125 C 0.457031 -0.320312 0.597656 -0.335938 0.703125 -0.359375 C 0.816406 -0.390625 0.898438 -0.4375 0.953125 -0.5 C 1.015625 -0.5625 1.054688 -0.648438 1.078125 -0.765625 C 1.097656 -0.878906 1.109375 -1.03125 1.109375 -1.21875 L 1.109375 -4.890625 C 1.109375 -5.078125 1.097656 -5.226562 1.078125 -5.34375 C 1.066406 -5.457031 1.03125 -5.546875 0.96875 -5.609375 C 0.914062 -5.671875 0.84375 -5.710938 0.75 -5.734375 C 0.65625 -5.765625 0.523438 -5.785156 0.359375 -5.796875 L 0.359375 -6.109375 L 3.109375 -6.109375 L 3.109375 -5.796875 C 2.921875 -5.785156 2.773438 -5.765625 2.671875 -5.734375 C 2.566406 -5.710938 2.484375 -5.664062 2.421875 -5.59375 C 2.359375 -5.53125 2.316406 -5.4375 2.296875 -5.3125 C 2.285156 -5.195312 2.28125 -5.035156 2.28125 -4.828125 L 2.28125 -3.375 L 5.21875 -3.375 L 5.21875 -4.890625 C 5.21875 -5.078125 5.207031 -5.226562 5.1875 -5.34375 C 5.164062 -5.457031 5.125 -5.546875 5.0625 -5.609375 C 5.007812 -5.671875 4.925781 -5.710938 4.8125 -5.734375 C 4.707031 -5.765625 4.566406 -5.785156 4.390625 -5.796875 L 4.390625 -6.109375 L 7.140625 -6.109375 L 7.140625 -5.796875 C 6.972656 -5.785156 6.84375 -5.765625 6.75 -5.734375 C 6.65625 -5.710938 6.578125 -5.664062 6.515625 -5.59375 C 6.460938 -5.53125 6.425781 -5.4375 6.40625 -5.3125 C 6.394531 -5.195312 6.390625 -5.035156 6.390625 -4.828125 Z M 6.390625 -1.28125 "/></g></g></g><g fill="#f9f7f1" fill-opacity="1"><g transform="translate(243.266563, 252.643562)"><g><path d="M 6.46875 -4.359375 L 6.125 -4.359375 C 6.113281 -4.617188 6.078125 -4.832031 6.015625 -5 C 5.953125 -5.175781 5.863281 -5.316406 5.75 -5.421875 C 5.644531 -5.523438 5.507812 -5.597656 5.34375 -5.640625 C 5.1875 -5.679688 5.003906 -5.703125 4.796875 -5.703125 C 4.585938 -5.703125 4.421875 -5.695312 4.296875 -5.6875 C 4.171875 -5.675781 4.070312 -5.660156 4 -5.640625 C 3.9375 -5.628906 3.894531 -5.609375 3.875 -5.578125 C 3.851562 -5.546875 3.84375 -5.503906 3.84375 -5.453125 L 3.84375 -1.296875 C 3.84375 -1.128906 3.851562 -0.984375 3.875 -0.859375 C 3.90625 -0.734375 3.957031 -0.628906 4.03125 -0.546875 C 4.101562 -0.472656 4.210938 -0.414062 4.359375 -0.375 C 4.503906 -0.34375 4.691406 -0.320312 4.921875 -0.3125 L 4.921875 0 L 1.59375 0 L 1.59375 -0.3125 C 1.832031 -0.320312 2.019531 -0.34375 2.15625 -0.375 C 2.300781 -0.414062 2.410156 -0.472656 2.484375 -0.546875 C 2.566406 -0.628906 2.617188 -0.734375 2.640625 -0.859375 C 2.671875 -0.984375 2.6875 -1.128906 2.6875 -1.296875 L 2.6875 -5.453125 C 2.6875 -5.503906 2.675781 -5.546875 2.65625 -5.578125 C 2.632812 -5.609375 2.59375 -5.628906 2.53125 -5.640625 C 2.476562 -5.660156 2.394531 -5.675781 2.28125 -5.6875 C 2.175781 -5.695312 2.035156 -5.703125 1.859375 -5.703125 C 1.671875 -5.703125 1.488281 -5.691406 1.3125 -5.671875 C 1.144531 -5.648438 0.992188 -5.59375 0.859375 -5.5 C 0.722656 -5.414062 0.613281 -5.285156 0.53125 -5.109375 C 0.445312 -4.929688 0.40625 -4.679688 0.40625 -4.359375 L 0.09375 -4.359375 L 0.171875 -6.109375 L 6.390625 -6.109375 Z M 6.46875 -4.359375 "/></g></g></g></svg>