<svg xmlns="http://www.w3.org/2000/svg" xmlns:xlink="http://www.w3.org/1999/xlink" width="500" zoomAndPan="magnify" viewBox="0 0 375 374.999991" height="500" preserveAspectRatio="xMidYMid meet" version="1.0"><defs><g/><clipPath id="2b912549a3"><path d="M 11.765625 177 L 187.265625 177 L 187.265625 227.375 L 11.765625 227.375 Z M 11.765625 177 " clip-rule="nonzero"/></clipPath><clipPath id="be1a650da3"><path d="M 97 122.375 L 103 122.375 L 103 198 L 97 198 Z M 97 122.375 " clip-rule="nonzero"/></clipPath></defs><g fill="#f9f7f1" fill-opacity="1"><g transform="translate(190.844225, 183.061603)"><g><path d="M 2.15625 -29.703125 L 11.375 -29.703125 C 14.15625 -29.703125 16.375 -29.109375 18.03125 -27.921875 C 19.6875 -26.734375 20.515625 -24.804688 20.515625 -22.140625 C 20.515625 -19.160156 19.28125 -17.035156 16.8125 -15.765625 C 21.03125 -15.023438 23.140625 -12.53125 23.140625 -8.28125 C 23.140625 -5.78125 22.273438 -3.773438 20.546875 -2.265625 C 18.828125 -0.753906 16.453125 0 13.421875 0 L 2.15625 0 Z M 8.921875 -18.078125 L 9.46875 -18.078125 C 10.976562 -18.078125 12.101562 -18.335938 12.84375 -18.859375 C 13.59375 -19.390625 13.96875 -20.253906 13.96875 -21.453125 C 13.96875 -23.472656 12.46875 -24.484375 9.46875 -24.484375 L 8.921875 -24.484375 Z M 8.921875 -5.21875 L 11.046875 -5.21875 C 14.359375 -5.21875 16.015625 -6.320312 16.015625 -8.53125 C 16.015625 -9.851562 15.597656 -10.800781 14.765625 -11.375 C 13.941406 -11.945312 12.703125 -12.234375 11.046875 -12.234375 L 8.921875 -12.234375 Z M 8.921875 -5.21875 "/></g></g></g><g fill="#f9f7f1" fill-opacity="1"><g transform="translate(214.821663, 183.061603)"><g><path d="M 8.921875 -29.703125 L 8.921875 0 L 2.15625 0 L 2.15625 -29.703125 Z M 8.921875 -29.703125 "/></g></g><g transform="translate(225.910329, 183.061603)"><g><path d="M 2.15625 -29.703125 L 11.375 -29.703125 C 14.15625 -29.703125 16.375 -29.109375 18.03125 -27.921875 C 19.6875 -26.734375 20.515625 -24.804688 20.515625 -22.140625 C 20.515625 -19.160156 19.28125 -17.035156 16.8125 -15.765625 C 21.03125 -15.023438 23.140625 -12.53125 23.140625 -8.28125 C 23.140625 -5.78125 22.273438 -3.773438 20.546875 -2.265625 C 18.828125 -0.753906 16.453125 0 13.421875 0 L 2.15625 0 Z M 8.921875 -18.078125 L 9.46875 -18.078125 C 10.976562 -18.078125 12.101562 -18.335938 12.84375 -18.859375 C 13.59375 -19.390625 13.96875 -20.253906 13.96875 -21.453125 C 13.96875 -23.472656 12.46875 -24.484375 9.46875 -24.484375 L 8.921875 -24.484375 Z M 8.921875 -5.21875 L 11.046875 -5.21875 C 14.359375 -5.21875 16.015625 -6.320312 16.015625 -8.53125 C 16.015625 -9.851562 15.597656 -10.800781 14.765625 -11.375 C 13.941406 -11.945312 12.703125 -12.234375 11.046875 -12.234375 L 8.921875 -12.234375 Z M 8.921875 -5.21875 "/></g></g></g><g fill="#f9f7f1" fill-opacity="1"><g transform="translate(249.887767, 183.061603)"><g><path d="M 8.921875 -29.703125 L 8.921875 -5.9375 L 19.15625 -5.9375 L 19.15625 0 L 2.15625 0 L 2.15625 -29.703125 Z M 8.921875 -29.703125 "/></g></g><g transform="translate(270.22899, 183.061603)"><g><path d="M 19.15625 -29.703125 L 19.15625 -23.765625 L 8.921875 -23.765625 L 8.921875 -17.859375 L 18.71875 -17.859375 L 18.71875 -11.921875 L 8.921875 -11.921875 L 8.921875 -5.9375 L 19.15625 -5.9375 L 19.15625 0 L 2.15625 0 L 2.15625 -29.703125 Z M 19.15625 -29.703125 "/></g></g></g><g fill="#f9f7f1" fill-opacity="1"><g transform="translate(291.110238, 183.061603)"><g><path d="M 13.109375 -30.234375 C 14.710938 -30.234375 16.28125 -30 17.8125 -29.53125 C 19.351562 -29.070312 20.492188 -28.613281 21.234375 -28.15625 L 22.3125 -27.4375 L 19.578125 -22.03125 C 19.367188 -22.175781 19.070312 -22.363281 18.6875 -22.59375 C 18.300781 -22.820312 17.578125 -23.125 16.515625 -23.5 C 15.460938 -23.882812 14.484375 -24.078125 13.578125 -24.078125 C 12.441406 -24.078125 11.566406 -23.835938 10.953125 -23.359375 C 10.347656 -22.878906 10.046875 -22.234375 10.046875 -21.421875 C 10.046875 -21.015625 10.1875 -20.632812 10.46875 -20.28125 C 10.757812 -19.9375 11.253906 -19.566406 11.953125 -19.171875 C 12.648438 -18.773438 13.257812 -18.457031 13.78125 -18.21875 C 14.3125 -17.976562 15.128906 -17.617188 16.234375 -17.140625 C 18.148438 -16.316406 19.785156 -15.203125 21.140625 -13.796875 C 22.503906 -12.398438 23.1875 -10.8125 23.1875 -9.03125 C 23.1875 -7.332031 22.878906 -5.84375 22.265625 -4.5625 C 21.648438 -3.289062 20.804688 -2.296875 19.734375 -1.578125 C 18.671875 -0.859375 17.488281 -0.328125 16.1875 0.015625 C 14.894531 0.367188 13.492188 0.546875 11.984375 0.546875 C 10.691406 0.546875 9.421875 0.410156 8.171875 0.140625 C 6.921875 -0.117188 5.875 -0.445312 5.03125 -0.84375 C 4.195312 -1.238281 3.441406 -1.628906 2.765625 -2.015625 C 2.097656 -2.398438 1.609375 -2.722656 1.296875 -2.984375 L 0.828125 -3.390625 L 4.21875 -9.078125 C 4.5 -8.835938 4.890625 -8.53125 5.390625 -8.15625 C 5.898438 -7.78125 6.796875 -7.28125 8.078125 -6.65625 C 9.367188 -6.03125 10.503906 -5.71875 11.484375 -5.71875 C 14.335938 -5.71875 15.765625 -6.691406 15.765625 -8.640625 C 15.765625 -9.046875 15.660156 -9.421875 15.453125 -9.765625 C 15.253906 -10.117188 14.894531 -10.46875 14.375 -10.8125 C 13.863281 -11.164062 13.410156 -11.441406 13.015625 -11.640625 C 12.617188 -11.847656 11.96875 -12.160156 11.0625 -12.578125 C 10.164062 -13.003906 9.503906 -13.320312 9.078125 -13.53125 C 7.273438 -14.425781 5.878906 -15.535156 4.890625 -16.859375 C 3.910156 -18.191406 3.421875 -19.628906 3.421875 -21.171875 C 3.421875 -23.828125 4.40625 -26 6.375 -27.6875 C 8.34375 -29.382812 10.585938 -30.234375 13.109375 -30.234375 Z M 13.109375 -30.234375 "/></g></g></g><g fill="#f9f7f1" fill-opacity="1"><g transform="translate(315.303698, 183.061603)"><g/></g></g><g fill="#f9f7f1" fill-opacity="1"><g transform="translate(325.132287, 183.061603)"><g><path d="M 1.046875 -7.8125 C 1.046875 -8.695312 1.25 -9.546875 1.65625 -10.359375 C 2.0625 -11.179688 2.632812 -11.925781 3.375 -12.59375 C 4.125 -13.269531 4.878906 -13.859375 5.640625 -14.359375 C 6.410156 -14.867188 7.289062 -15.382812 8.28125 -15.90625 C 6.289062 -18.40625 5.296875 -20.601562 5.296875 -22.5 C 5.296875 -24.851562 6.113281 -26.726562 7.75 -28.125 C 9.394531 -29.53125 11.734375 -30.234375 14.765625 -30.234375 C 17.546875 -30.234375 19.707031 -29.453125 21.25 -27.890625 C 22.800781 -26.335938 23.578125 -24.539062 23.578125 -22.5 C 23.578125 -21.65625 23.375 -20.832031 22.96875 -20.03125 C 22.5625 -19.226562 22.070312 -18.546875 21.5 -17.984375 C 20.9375 -17.421875 20.367188 -16.921875 19.796875 -16.484375 C 19.222656 -16.054688 18.734375 -15.734375 18.328125 -15.515625 L 17.71875 -15.1875 L 21.671875 -11.09375 C 22.535156 -11.46875 23.988281 -12.710938 26.03125 -14.828125 L 30.203125 -10.734375 C 28.859375 -9.191406 27.453125 -7.832031 25.984375 -6.65625 L 32.40625 0 L 23.875 0 L 20.921875 -3.0625 C 20.003906 -2.414062 19.328125 -1.953125 18.890625 -1.671875 C 18.460938 -1.398438 17.820312 -1.046875 16.96875 -0.609375 C 16.125 -0.179688 15.25 0.113281 14.34375 0.28125 C 13.445312 0.457031 12.457031 0.546875 11.375 0.546875 C 10.4375 0.546875 9.507812 0.46875 8.59375 0.3125 C 7.6875 0.15625 6.769531 -0.117188 5.84375 -0.515625 C 4.925781 -0.910156 4.117188 -1.410156 3.421875 -2.015625 C 2.722656 -2.617188 2.148438 -3.414062 1.703125 -4.40625 C 1.265625 -5.40625 1.046875 -6.539062 1.046875 -7.8125 Z M 14.765625 -25.453125 C 13.898438 -25.453125 13.25 -25.175781 12.8125 -24.625 C 12.382812 -24.070312 12.171875 -23.363281 12.171875 -22.5 C 12.171875 -22 12.347656 -21.441406 12.703125 -20.828125 C 13.066406 -20.210938 13.425781 -19.726562 13.78125 -19.375 L 14.328125 -18.859375 C 16.535156 -20.054688 17.640625 -21.269531 17.640625 -22.5 C 17.640625 -24.46875 16.679688 -25.453125 14.765625 -25.453125 Z M 16.53125 -7.5625 L 11.8125 -12.203125 C 11.738281 -12.179688 11.628906 -12.140625 11.484375 -12.078125 C 11.335938 -12.015625 11.082031 -11.867188 10.71875 -11.640625 C 10.363281 -11.410156 10.050781 -11.15625 9.78125 -10.875 C 9.519531 -10.601562 9.273438 -10.238281 9.046875 -9.78125 C 8.828125 -9.332031 8.71875 -8.859375 8.71875 -8.359375 C 8.71875 -7.554688 9.050781 -6.941406 9.71875 -6.515625 C 10.394531 -6.085938 11.175781 -5.875 12.0625 -5.875 C 12.78125 -5.875 13.507812 -6.007812 14.25 -6.28125 C 15 -6.5625 15.566406 -6.84375 15.953125 -7.125 Z M 16.53125 -7.5625 "/></g></g></g><g fill="#f9f7f1" fill-opacity="1"><g transform="translate(190.483444, 226.203436)"><g><path d="M 15.078125 -29.703125 L 15.078125 -8.390625 C 15.078125 -5.484375 14.28125 -3.265625 12.6875 -1.734375 C 11.09375 -0.210938 8.804688 0.546875 5.828125 0.546875 C 5.035156 0.546875 4.253906 0.445312 3.484375 0.25 C 2.722656 0.0625 2.078125 -0.164062 1.546875 -0.4375 C 1.015625 -0.71875 0.539062 -1.003906 0.125 -1.296875 C -0.289062 -1.585938 -0.597656 -1.828125 -0.796875 -2.015625 L -1.109375 -2.296875 L 1.046875 -7.953125 C 2.460938 -6.609375 3.742188 -5.9375 4.890625 -5.9375 C 5.921875 -5.9375 6.75 -6.273438 7.375 -6.953125 C 8 -7.640625 8.3125 -8.691406 8.3125 -10.109375 L 8.3125 -29.703125 Z M 15.078125 -29.703125 "/></g></g></g><g fill="#f9f7f1" fill-opacity="1"><g transform="translate(207.368456, 226.203436)"><g><path d="M 8.921875 -29.703125 L 8.921875 0 L 2.15625 0 L 2.15625 -29.703125 Z M 8.921875 -29.703125 "/></g></g><g transform="translate(218.457122, 226.203436)"><g><path d="M 24.984375 -29.703125 L 24.984375 -10.546875 C 24.984375 -6.898438 24 -4.140625 22.03125 -2.265625 C 20.0625 -0.390625 17.179688 0.546875 13.390625 0.546875 C 9.597656 0.546875 6.71875 -0.390625 4.75 -2.265625 C 2.78125 -4.140625 1.796875 -6.898438 1.796875 -10.546875 L 1.796875 -29.703125 L 8.5625 -29.703125 L 8.5625 -12.53125 C 8.5625 -10.125 8.941406 -8.453125 9.703125 -7.515625 C 10.460938 -6.585938 11.691406 -6.125 13.390625 -6.125 C 15.097656 -6.125 16.328125 -6.585938 17.078125 -7.515625 C 17.835938 -8.453125 18.21875 -10.125 18.21875 -12.53125 L 18.21875 -29.703125 Z M 24.984375 -29.703125 "/></g></g><g transform="translate(245.242732, 226.203436)"><g/></g></g><g fill="#f9f7f1" fill-opacity="1"><g transform="translate(255.071322, 226.203436)"><g><path d="M 15.078125 -29.703125 L 15.078125 -8.390625 C 15.078125 -5.484375 14.28125 -3.265625 12.6875 -1.734375 C 11.09375 -0.210938 8.804688 0.546875 5.828125 0.546875 C 5.035156 0.546875 4.253906 0.445312 3.484375 0.25 C 2.722656 0.0625 2.078125 -0.164062 1.546875 -0.4375 C 1.015625 -0.71875 0.539062 -1.003906 0.125 -1.296875 C -0.289062 -1.585938 -0.597656 -1.828125 -0.796875 -2.015625 L -1.109375 -2.296875 L 1.046875 -7.953125 C 2.460938 -6.609375 3.742188 -5.9375 4.890625 -5.9375 C 5.921875 -5.9375 6.75 -6.273438 7.375 -6.953125 C 8 -7.640625 8.3125 -8.691406 8.3125 -10.109375 L 8.3125 -29.703125 Z M 15.078125 -29.703125 "/></g></g></g><g fill="#f9f7f1" fill-opacity="1"><g transform="translate(271.956329, 226.203436)"><g><path d="M 8.921875 -29.703125 L 8.921875 0 L 2.15625 0 L 2.15625 -29.703125 Z M 8.921875 -29.703125 "/></g></g></g><g fill="#f9f7f1" fill-opacity="1"><g transform="translate(283.044991, 226.203436)"><g><path d="M 0.28125 -23.765625 L 0.28125 -29.703125 L 21.171875 -29.703125 L 21.171875 -23.765625 L 14.109375 -23.765625 L 14.109375 0 L 7.34375 0 L 7.34375 -23.765625 Z M 0.28125 -23.765625 "/></g></g></g><g fill="#f9f7f1" fill-opacity="1"><g transform="translate(304.502274, 226.203436)"><g><path d="M 13.109375 -30.234375 C 14.710938 -30.234375 16.28125 -30 17.8125 -29.53125 C 19.351562 -29.070312 20.492188 -28.613281 21.234375 -28.15625 L 22.3125 -27.4375 L 19.578125 -22.03125 C 19.367188 -22.175781 19.070312 -22.363281 18.6875 -22.59375 C 18.300781 -22.820312 17.578125 -23.125 16.515625 -23.5 C 15.460938 -23.882812 14.484375 -24.078125 13.578125 -24.078125 C 12.441406 -24.078125 11.566406 -23.835938 10.953125 -23.359375 C 10.347656 -22.878906 10.046875 -22.234375 10.046875 -21.421875 C 10.046875 -21.015625 10.1875 -20.632812 10.46875 -20.28125 C 10.757812 -19.9375 11.253906 -19.566406 11.953125 -19.171875 C 12.648438 -18.773438 13.257812 -18.457031 13.78125 -18.21875 C 14.3125 -17.976562 15.128906 -17.617188 16.234375 -17.140625 C 18.148438 -16.316406 19.785156 -15.203125 21.140625 -13.796875 C 22.503906 -12.398438 23.1875 -10.8125 23.1875 -9.03125 C 23.1875 -7.332031 22.878906 -5.84375 22.265625 -4.5625 C 21.648438 -3.289062 20.804688 -2.296875 19.734375 -1.578125 C 18.671875 -0.859375 17.488281 -0.328125 16.1875 0.015625 C 14.894531 0.367188 13.492188 0.546875 11.984375 0.546875 C 10.691406 0.546875 9.421875 0.410156 8.171875 0.140625 C 6.921875 -0.117188 5.875 -0.445312 5.03125 -0.84375 C 4.195312 -1.238281 3.441406 -1.628906 2.765625 -2.015625 C 2.097656 -2.398438 1.609375 -2.722656 1.296875 -2.984375 L 0.828125 -3.390625 L 4.21875 -9.078125 C 4.5 -8.835938 4.890625 -8.53125 5.390625 -8.15625 C 5.898438 -7.78125 6.796875 -7.28125 8.078125 -6.65625 C 9.367188 -6.03125 10.503906 -5.71875 11.484375 -5.71875 C 14.335938 -5.71875 15.765625 -6.691406 15.765625 -8.640625 C 15.765625 -9.046875 15.660156 -9.421875 15.453125 -9.765625 C 15.253906 -10.117188 14.894531 -10.46875 14.375 -10.8125 C 13.863281 -11.164062 13.410156 -11.441406 13.015625 -11.640625 C 12.617188 -11.847656 11.96875 -12.160156 11.0625 -12.578125 C 10.164062 -13.003906 9.503906 -13.320312 9.078125 -13.53125 C 7.273438 -14.425781 5.878906 -15.535156 4.890625 -16.859375 C 3.910156 -18.191406 3.421875 -19.628906 3.421875 -21.171875 C 3.421875 -23.828125 4.40625 -26 6.375 -27.6875 C 8.34375 -29.382812 10.585938 -30.234375 13.109375 -30.234375 Z M 13.109375 -30.234375 "/></g></g></g><g fill="#f9f7f1" fill-opacity="1"><g transform="translate(328.695734, 226.203436)"><g><path d="M 24.984375 -29.703125 L 24.984375 -10.546875 C 24.984375 -6.898438 24 -4.140625 22.03125 -2.265625 C 20.0625 -0.390625 17.179688 0.546875 13.390625 0.546875 C 9.597656 0.546875 6.71875 -0.390625 4.75 -2.265625 C 2.78125 -4.140625 1.796875 -6.898438 1.796875 -10.546875 L 1.796875 -29.703125 L 8.5625 -29.703125 L 8.5625 -12.53125 C 8.5625 -10.125 8.941406 -8.453125 9.703125 -7.515625 C 10.460938 -6.585938 11.691406 -6.125 13.390625 -6.125 C 15.097656 -6.125 16.328125 -6.585938 17.078125 -7.515625 C 17.835938 -8.453125 18.21875 -10.125 18.21875 -12.53125 L 18.21875 -29.703125 Z M 24.984375 -29.703125 "/></g></g></g><g clip-path="url(#2b912549a3)"><path fill="#f9f7f1" d="M 11.765625 227.375 L 24.6875 212.667969 L 33.929688 212.667969 L 43.574219 205.261719 L 50.121094 197.855469 L 57.007812 197.855469 L 62.175781 190.976562 L 76.988281 188.332031 C 76.988281 188.332031 90.839844 176.785156 95.597656 178.074219 C 106.859375 181.125 100.722656 175.453125 121.203125 186.894531 C 127.722656 190.539062 135.898438 194.800781 138.53125 195.90625 C 141.164062 197.007812 151.359375 197.191406 151.359375 197.191406 L 162.128906 206.011719 L 169.550781 211.527344 L 176.488281 217.40625 L 181.515625 217.777344 L 187.5 227.375 Z M 11.765625 227.375 " fill-opacity="1" fill-rule="nonzero"/></g><g clip-path="url(#be1a650da3)"><path fill="#f9f7f1" d="M 97.140625 122.378906 L 102.121094 122.378906 L 102.121094 197.238281 L 97.140625 197.238281 Z M 97.140625 122.378906 " fill-opacity="1" fill-rule="nonzero"/></g><path fill="#f9f7f1" d="M 79.34375 142.453125 L 79.34375 137.476562 L 119.921875 137.476562 L 119.921875 142.453125 Z M 79.34375 142.453125 " fill-opacity="1" fill-rule="nonzero"/><path fill="#f9f7f1" d="M 58.386719 148.34375 L 62.054688 148.34375 L 62.054688 203.433594 L 58.386719 203.433594 Z M 58.386719 148.34375 " fill-opacity="1" fill-rule="nonzero"/><path fill="#f9f7f1" d="M 45.289062 163.117188 L 45.289062 159.453125 L 75.152344 159.453125 L 75.152344 163.117188 Z M 45.289062 163.117188 " fill-opacity="1" fill-rule="nonzero"/><path fill="#f9f7f1" d="M 137.683594 148.34375 L 141.347656 148.34375 L 141.347656 203.433594 L 137.683594 203.433594 Z M 137.683594 148.34375 " fill-opacity="1" fill-rule="nonzero"/><path fill="#f9f7f1" d="M 124.582031 163.117188 L 124.582031 159.453125 L 154.449219 159.453125 L 154.449219 163.117188 Z M 124.582031 163.117188 " fill-opacity="1" fill-rule="nonzero"/></svg>