<svg xmlns="http://www.w3.org/2000/svg" xmlns:xlink="http://www.w3.org/1999/xlink" width="500" zoomAndPan="magnify" viewBox="0 0 375 374.999991" height="500" preserveAspectRatio="xMidYMid meet" version="1.0"><defs><clipPath id="9c9725b105"><path d="M 129.539062 106 L 246.539062 106 L 246.539062 139.179688 L 129.539062 139.179688 Z M 129.539062 106 " clip-rule="nonzero"/></clipPath><clipPath id="56ffc13b95"><path d="M 186 69.429688 L 190 69.429688 L 190 120 L 186 120 Z M 186 69.429688 " clip-rule="nonzero"/></clipPath></defs><g clip-path="url(#9c9725b105)"><path fill="#f9f7f1" d="M 129.539062 139.394531 L 138.148438 129.597656 L 144.308594 129.597656 L 150.734375 124.660156 L 155.097656 119.726562 L 159.6875 119.726562 L 163.128906 115.144531 L 172.996094 113.378906 C 172.996094 113.378906 182.226562 105.6875 185.398438 106.546875 C 192.902344 108.578125 188.8125 104.796875 202.460938 112.421875 C 206.804688 114.851562 212.25 117.691406 214.003906 118.425781 C 215.761719 119.160156 222.554688 119.28125 222.554688 119.28125 L 229.730469 125.160156 L 234.671875 128.835938 L 239.296875 132.753906 L 242.648438 133 L 246.632812 139.394531 Z M 129.539062 139.394531 " fill-opacity="1" fill-rule="nonzero"/></g><g clip-path="url(#56ffc13b95)"><path fill="#f9f7f1" d="M 186.425781 69.4375 L 189.746094 69.4375 L 189.746094 119.3125 L 186.425781 119.3125 Z M 186.425781 69.4375 " fill-opacity="1" fill-rule="nonzero"/></g><path fill="#f9f7f1" d="M 174.566406 82.8125 L 174.566406 79.492188 L 201.605469 79.492188 L 201.605469 82.8125 Z M 174.566406 82.8125 " fill-opacity="1" fill-rule="nonzero"/><path fill="#f9f7f1" d="M 160.605469 86.734375 L 163.046875 86.734375 L 163.046875 123.445312 L 160.605469 123.445312 Z M 160.605469 86.734375 " fill-opacity="1" fill-rule="nonzero"/><path fill="#f9f7f1" d="M 151.875 96.578125 L 151.875 94.136719 L 171.777344 94.136719 L 171.777344 96.578125 Z M 151.875 96.578125 " fill-opacity="1" fill-rule="nonzero"/><path fill="#f9f7f1" d="M 213.441406 86.734375 L 215.882812 86.734375 L 215.882812 123.445312 L 213.441406 123.445312 Z M 213.441406 86.734375 " fill-opacity="1" fill-rule="nonzero"/><path fill="#f9f7f1" d="M 204.710938 96.578125 L 204.710938 94.136719 L 224.613281 94.136719 L 224.613281 96.578125 Z M 204.710938 96.578125 " fill-opacity="1" fill-rule="nonzero"/></svg>