<svg xmlns="http://www.w3.org/2000/svg" xmlns:xlink="http://www.w3.org/1999/xlink" width="500" zoomAndPan="magnify" viewBox="0 0 375 374.999991" height="500" preserveAspectRatio="xMidYMid meet" version="1.0"><defs><g/></defs><g fill="#f9f7f1" fill-opacity="1"><g transform="translate(93.036757, 182.88617)"><g><path d="M 2.484375 -34.15625 L 13.078125 -34.15625 C 16.285156 -34.15625 18.835938 -33.472656 20.734375 -32.109375 C 22.640625 -30.742188 23.59375 -28.53125 23.59375 -25.46875 C 23.59375 -22.039062 22.175781 -19.597656 19.34375 -18.140625 C 24.195312 -17.285156 26.625 -14.410156 26.625 -9.515625 C 26.625 -6.648438 25.628906 -4.347656 23.640625 -2.609375 C 21.648438 -0.867188 18.914062 0 15.4375 0 L 2.484375 0 Z M 10.265625 -20.78125 L 10.890625 -20.78125 C 12.628906 -20.78125 13.925781 -21.082031 14.78125 -21.6875 C 15.632812 -22.300781 16.0625 -23.296875 16.0625 -24.671875 C 16.0625 -26.992188 14.335938 -28.15625 10.890625 -28.15625 L 10.265625 -28.15625 Z M 10.265625 -6 L 12.71875 -6 C 16.519531 -6 18.421875 -7.269531 18.421875 -9.8125 C 18.421875 -11.332031 17.941406 -12.421875 16.984375 -13.078125 C 16.035156 -13.742188 14.613281 -14.078125 12.71875 -14.078125 L 10.265625 -14.078125 Z M 10.265625 -6 "/></g></g></g><g fill="#f9f7f1" fill-opacity="1"><g transform="translate(120.61125, 182.88617)"><g><path d="M 10.265625 -34.15625 L 10.265625 0 L 2.484375 0 L 2.484375 -34.15625 Z M 10.265625 -34.15625 "/></g></g><g transform="translate(133.363419, 182.88617)"><g><path d="M 2.484375 -34.15625 L 13.078125 -34.15625 C 16.285156 -34.15625 18.835938 -33.472656 20.734375 -32.109375 C 22.640625 -30.742188 23.59375 -28.53125 23.59375 -25.46875 C 23.59375 -22.039062 22.175781 -19.597656 19.34375 -18.140625 C 24.195312 -17.285156 26.625 -14.410156 26.625 -9.515625 C 26.625 -6.648438 25.628906 -4.347656 23.640625 -2.609375 C 21.648438 -0.867188 18.914062 0 15.4375 0 L 2.484375 0 Z M 10.265625 -20.78125 L 10.890625 -20.78125 C 12.628906 -20.78125 13.925781 -21.082031 14.78125 -21.6875 C 15.632812 -22.300781 16.0625 -23.296875 16.0625 -24.671875 C 16.0625 -26.992188 14.335938 -28.15625 10.890625 -28.15625 L 10.265625 -28.15625 Z M 10.265625 -6 L 12.71875 -6 C 16.519531 -6 18.421875 -7.269531 18.421875 -9.8125 C 18.421875 -11.332031 17.941406 -12.421875 16.984375 -13.078125 C 16.035156 -13.742188 14.613281 -14.078125 12.71875 -14.078125 L 10.265625 -14.078125 Z M 10.265625 -6 "/></g></g></g><g fill="#f9f7f1" fill-opacity="1"><g transform="translate(160.937912, 182.88617)"><g><path d="M 10.265625 -34.15625 L 10.265625 -6.828125 L 22.03125 -6.828125 L 22.03125 0 L 2.484375 0 L 2.484375 -34.15625 Z M 10.265625 -34.15625 "/></g></g><g transform="translate(184.330691, 182.88617)"><g><path d="M 22.03125 -34.15625 L 22.03125 -27.328125 L 10.265625 -27.328125 L 10.265625 -20.53125 L 21.53125 -20.53125 L 21.53125 -13.703125 L 10.265625 -13.703125 L 10.265625 -6.828125 L 22.03125 -6.828125 L 22.03125 0 L 2.484375 0 L 2.484375 -34.15625 Z M 22.03125 -34.15625 "/></g></g></g><g fill="#f9f7f1" fill-opacity="1"><g transform="translate(208.344509, 182.88617)"><g><path d="M 15.078125 -34.78125 C 16.921875 -34.78125 18.722656 -34.507812 20.484375 -33.96875 C 22.253906 -33.4375 23.566406 -32.90625 24.421875 -32.375 L 25.671875 -31.546875 L 22.53125 -25.34375 C 22.28125 -25.507812 21.929688 -25.722656 21.484375 -25.984375 C 21.046875 -26.242188 20.21875 -26.59375 19 -27.03125 C 17.789062 -27.476562 16.660156 -27.703125 15.609375 -27.703125 C 14.304688 -27.703125 13.300781 -27.425781 12.59375 -26.875 C 11.894531 -26.320312 11.546875 -25.578125 11.546875 -24.640625 C 11.546875 -24.171875 11.710938 -23.734375 12.046875 -23.328125 C 12.378906 -22.929688 12.945312 -22.503906 13.75 -22.046875 C 14.550781 -21.585938 15.253906 -21.21875 15.859375 -20.9375 C 16.460938 -20.664062 17.398438 -20.253906 18.671875 -19.703125 C 20.878906 -18.765625 22.765625 -17.488281 24.328125 -15.875 C 25.890625 -14.257812 26.671875 -12.429688 26.671875 -10.390625 C 26.671875 -8.429688 26.316406 -6.71875 25.609375 -5.25 C 24.898438 -3.789062 23.929688 -2.644531 22.703125 -1.8125 C 21.484375 -0.988281 20.125 -0.378906 18.625 0.015625 C 17.132812 0.421875 15.519531 0.625 13.78125 0.625 C 12.289062 0.625 10.828125 0.46875 9.390625 0.15625 C 7.960938 -0.144531 6.765625 -0.519531 5.796875 -0.96875 C 4.828125 -1.425781 3.957031 -1.875 3.1875 -2.3125 C 2.414062 -2.757812 1.847656 -3.132812 1.484375 -3.4375 L 0.953125 -3.890625 L 4.84375 -10.4375 C 5.175781 -10.15625 5.628906 -9.800781 6.203125 -9.375 C 6.785156 -8.945312 7.816406 -8.375 9.296875 -7.65625 C 10.773438 -6.9375 12.078125 -6.578125 13.203125 -6.578125 C 16.492188 -6.578125 18.140625 -7.695312 18.140625 -9.9375 C 18.140625 -10.40625 18.019531 -10.835938 17.78125 -11.234375 C 17.550781 -11.640625 17.140625 -12.039062 16.546875 -12.4375 C 15.953125 -12.84375 15.425781 -13.160156 14.96875 -13.390625 C 14.507812 -13.628906 13.757812 -13.988281 12.71875 -14.46875 C 11.6875 -14.957031 10.925781 -15.320312 10.4375 -15.5625 C 8.363281 -16.582031 6.757812 -17.859375 5.625 -19.390625 C 4.5 -20.929688 3.9375 -22.582031 3.9375 -24.34375 C 3.9375 -27.40625 5.066406 -29.910156 7.328125 -31.859375 C 9.585938 -33.804688 12.171875 -34.78125 15.078125 -34.78125 Z M 15.078125 -34.78125 "/></g></g></g><g fill="#f9f7f1" fill-opacity="1"><g transform="translate(236.167431, 182.88617)"><g/></g></g><g fill="#f9f7f1" fill-opacity="1"><g transform="translate(247.470488, 182.88617)"><g><path d="M 1.203125 -8.984375 C 1.203125 -10.003906 1.4375 -10.984375 1.90625 -11.921875 C 2.375 -12.859375 3.035156 -13.710938 3.890625 -14.484375 C 4.742188 -15.265625 5.613281 -15.941406 6.5 -16.515625 C 7.382812 -17.097656 8.390625 -17.691406 9.515625 -18.296875 C 7.234375 -21.171875 6.09375 -23.695312 6.09375 -25.875 C 6.09375 -28.582031 7.035156 -30.742188 8.921875 -32.359375 C 10.816406 -33.972656 13.5 -34.78125 16.96875 -34.78125 C 20.175781 -34.78125 22.671875 -33.878906 24.453125 -32.078125 C 26.234375 -30.285156 27.125 -28.21875 27.125 -25.875 C 27.125 -24.90625 26.890625 -23.957031 26.421875 -23.03125 C 25.953125 -22.113281 25.390625 -21.328125 24.734375 -20.671875 C 24.085938 -20.023438 23.429688 -19.453125 22.765625 -18.953125 C 22.109375 -18.460938 21.546875 -18.09375 21.078125 -17.84375 L 20.375 -17.46875 L 24.921875 -12.75 C 25.921875 -13.195312 27.59375 -14.632812 29.9375 -17.0625 L 34.734375 -12.34375 C 33.191406 -10.570312 31.578125 -9.007812 29.890625 -7.65625 L 37.265625 0 L 27.453125 0 L 24.0625 -3.515625 C 23.007812 -2.773438 22.234375 -2.242188 21.734375 -1.921875 C 21.242188 -1.609375 20.503906 -1.203125 19.515625 -0.703125 C 18.535156 -0.203125 17.53125 0.140625 16.5 0.328125 C 15.46875 0.523438 14.328125 0.625 13.078125 0.625 C 12.003906 0.625 10.941406 0.53125 9.890625 0.34375 C 8.847656 0.164062 7.796875 -0.144531 6.734375 -0.59375 C 5.671875 -1.050781 4.738281 -1.625 3.9375 -2.3125 C 3.132812 -3.007812 2.476562 -3.929688 1.96875 -5.078125 C 1.457031 -6.222656 1.203125 -7.523438 1.203125 -8.984375 Z M 16.96875 -29.28125 C 15.976562 -29.28125 15.234375 -28.960938 14.734375 -28.328125 C 14.242188 -27.691406 14 -26.875 14 -25.875 C 14 -25.300781 14.203125 -24.660156 14.609375 -23.953125 C 15.023438 -23.242188 15.441406 -22.6875 15.859375 -22.28125 L 16.484375 -21.703125 C 19.015625 -23.078125 20.28125 -24.46875 20.28125 -25.875 C 20.28125 -28.144531 19.175781 -29.28125 16.96875 -29.28125 Z M 19 -8.6875 L 13.578125 -14.03125 C 13.492188 -14.007812 13.367188 -13.960938 13.203125 -13.890625 C 13.035156 -13.816406 12.742188 -13.648438 12.328125 -13.390625 C 11.921875 -13.128906 11.566406 -12.835938 11.265625 -12.515625 C 10.960938 -12.203125 10.675781 -11.78125 10.40625 -11.25 C 10.144531 -10.726562 10.015625 -10.179688 10.015625 -9.609375 C 10.015625 -8.691406 10.398438 -7.984375 11.171875 -7.484375 C 11.953125 -6.992188 12.851562 -6.75 13.875 -6.75 C 14.695312 -6.75 15.535156 -6.90625 16.390625 -7.21875 C 17.253906 -7.539062 17.90625 -7.867188 18.34375 -8.203125 Z M 19 -8.6875 "/></g></g></g><g fill="#f9f7f1" fill-opacity="1"><g transform="translate(92.621852, 232.500068)"><g><path d="M 17.34375 -34.15625 L 17.34375 -9.640625 C 17.34375 -6.304688 16.425781 -3.757812 14.59375 -2 C 12.757812 -0.25 10.128906 0.625 6.703125 0.625 C 5.796875 0.625 4.898438 0.507812 4.015625 0.28125 C 3.128906 0.0625 2.382812 -0.203125 1.78125 -0.515625 C 1.175781 -0.835938 0.628906 -1.160156 0.140625 -1.484375 C -0.335938 -1.816406 -0.6875 -2.09375 -0.90625 -2.3125 L -1.28125 -2.65625 L 1.203125 -9.15625 C 2.828125 -7.601562 4.300781 -6.828125 5.625 -6.828125 C 6.8125 -6.828125 7.765625 -7.21875 8.484375 -8 C 9.203125 -8.789062 9.5625 -10.003906 9.5625 -11.640625 L 9.5625 -34.15625 Z M 17.34375 -34.15625 "/></g></g></g><g fill="#f9f7f1" fill-opacity="1"><g transform="translate(112.039926, 232.500068)"><g><path d="M 10.265625 -34.15625 L 10.265625 0 L 2.484375 0 L 2.484375 -34.15625 Z M 10.265625 -34.15625 "/></g></g><g transform="translate(124.792095, 232.500068)"><g><path d="M 28.734375 -34.15625 L 28.734375 -12.125 C 28.734375 -7.9375 27.597656 -4.765625 25.328125 -2.609375 C 23.066406 -0.453125 19.753906 0.625 15.390625 0.625 C 11.035156 0.625 7.722656 -0.453125 5.453125 -2.609375 C 3.191406 -4.765625 2.0625 -7.9375 2.0625 -12.125 L 2.0625 -34.15625 L 9.859375 -34.15625 L 9.859375 -14.40625 C 9.859375 -11.644531 10.289062 -9.722656 11.15625 -8.640625 C 12.03125 -7.566406 13.445312 -7.03125 15.40625 -7.03125 C 17.363281 -7.03125 18.773438 -7.566406 19.640625 -8.640625 C 20.515625 -9.722656 20.953125 -11.644531 20.953125 -14.40625 L 20.953125 -34.15625 Z M 28.734375 -34.15625 "/></g></g><g transform="translate(155.596037, 232.500068)"><g/></g></g><g fill="#f9f7f1" fill-opacity="1"><g transform="translate(166.899095, 232.500068)"><g><path d="M 17.34375 -34.15625 L 17.34375 -9.640625 C 17.34375 -6.304688 16.425781 -3.757812 14.59375 -2 C 12.757812 -0.25 10.128906 0.625 6.703125 0.625 C 5.796875 0.625 4.898438 0.507812 4.015625 0.28125 C 3.128906 0.0625 2.382812 -0.203125 1.78125 -0.515625 C 1.175781 -0.835938 0.628906 -1.160156 0.140625 -1.484375 C -0.335938 -1.816406 -0.6875 -2.09375 -0.90625 -2.3125 L -1.28125 -2.65625 L 1.203125 -9.15625 C 2.828125 -7.601562 4.300781 -6.828125 5.625 -6.828125 C 6.8125 -6.828125 7.765625 -7.21875 8.484375 -8 C 9.203125 -8.789062 9.5625 -10.003906 9.5625 -11.640625 L 9.5625 -34.15625 Z M 17.34375 -34.15625 "/></g></g></g><g fill="#f9f7f1" fill-opacity="1"><g transform="translate(186.317163, 232.500068)"><g><path d="M 10.265625 -34.15625 L 10.265625 0 L 2.484375 0 L 2.484375 -34.15625 Z M 10.265625 -34.15625 "/></g></g></g><g fill="#f9f7f1" fill-opacity="1"><g transform="translate(199.069328, 232.500068)"><g><path d="M 0.328125 -27.328125 L 0.328125 -34.15625 L 24.34375 -34.15625 L 24.34375 -27.328125 L 16.234375 -27.328125 L 16.234375 0 L 8.453125 0 L 8.453125 -27.328125 Z M 0.328125 -27.328125 "/></g></g></g><g fill="#f9f7f1" fill-opacity="1"><g transform="translate(223.745596, 232.500068)"><g><path d="M 15.078125 -34.78125 C 16.921875 -34.78125 18.722656 -34.507812 20.484375 -33.96875 C 22.253906 -33.4375 23.566406 -32.90625 24.421875 -32.375 L 25.671875 -31.546875 L 22.53125 -25.34375 C 22.28125 -25.507812 21.929688 -25.722656 21.484375 -25.984375 C 21.046875 -26.242188 20.21875 -26.59375 19 -27.03125 C 17.789062 -27.476562 16.660156 -27.703125 15.609375 -27.703125 C 14.304688 -27.703125 13.300781 -27.425781 12.59375 -26.875 C 11.894531 -26.320312 11.546875 -25.578125 11.546875 -24.640625 C 11.546875 -24.171875 11.710938 -23.734375 12.046875 -23.328125 C 12.378906 -22.929688 12.945312 -22.503906 13.75 -22.046875 C 14.550781 -21.585938 15.253906 -21.21875 15.859375 -20.9375 C 16.460938 -20.664062 17.398438 -20.253906 18.671875 -19.703125 C 20.878906 -18.765625 22.765625 -17.488281 24.328125 -15.875 C 25.890625 -14.257812 26.671875 -12.429688 26.671875 -10.390625 C 26.671875 -8.429688 26.316406 -6.71875 25.609375 -5.25 C 24.898438 -3.789062 23.929688 -2.644531 22.703125 -1.8125 C 21.484375 -0.988281 20.125 -0.378906 18.625 0.015625 C 17.132812 0.421875 15.519531 0.625 13.78125 0.625 C 12.289062 0.625 10.828125 0.46875 9.390625 0.15625 C 7.960938 -0.144531 6.765625 -0.519531 5.796875 -0.96875 C 4.828125 -1.425781 3.957031 -1.875 3.1875 -2.3125 C 2.414062 -2.757812 1.847656 -3.132812 1.484375 -3.4375 L 0.953125 -3.890625 L 4.84375 -10.4375 C 5.175781 -10.15625 5.628906 -9.800781 6.203125 -9.375 C 6.785156 -8.945312 7.816406 -8.375 9.296875 -7.65625 C 10.773438 -6.9375 12.078125 -6.578125 13.203125 -6.578125 C 16.492188 -6.578125 18.140625 -7.695312 18.140625 -9.9375 C 18.140625 -10.40625 18.019531 -10.835938 17.78125 -11.234375 C 17.550781 -11.640625 17.140625 -12.039062 16.546875 -12.4375 C 15.953125 -12.84375 15.425781 -13.160156 14.96875 -13.390625 C 14.507812 -13.628906 13.757812 -13.988281 12.71875 -14.46875 C 11.6875 -14.957031 10.925781 -15.320312 10.4375 -15.5625 C 8.363281 -16.582031 6.757812 -17.859375 5.625 -19.390625 C 4.5 -20.929688 3.9375 -22.582031 3.9375 -24.34375 C 3.9375 -27.40625 5.066406 -29.910156 7.328125 -31.859375 C 9.585938 -33.804688 12.171875 -34.78125 15.078125 -34.78125 Z M 15.078125 -34.78125 "/></g></g></g><g fill="#f9f7f1" fill-opacity="1"><g transform="translate(251.568517, 232.500068)"><g><path d="M 28.734375 -34.15625 L 28.734375 -12.125 C 28.734375 -7.9375 27.597656 -4.765625 25.328125 -2.609375 C 23.066406 -0.453125 19.753906 0.625 15.390625 0.625 C 11.035156 0.625 7.722656 -0.453125 5.453125 -2.609375 C 3.191406 -4.765625 2.0625 -7.9375 2.0625 -12.125 L 2.0625 -34.15625 L 9.859375 -34.15625 L 9.859375 -14.40625 C 9.859375 -11.644531 10.289062 -9.722656 11.15625 -8.640625 C 12.03125 -7.566406 13.445312 -7.03125 15.40625 -7.03125 C 17.363281 -7.03125 18.773438 -7.566406 19.640625 -8.640625 C 20.515625 -9.722656 20.953125 -11.644531 20.953125 -14.40625 L 20.953125 -34.15625 Z M 28.734375 -34.15625 "/></g></g></g></svg>