<?xml version="1.0" standalone="no"?>
<!DOCTYPE svg PUBLIC "-//W3C//DTD SVG 20010904//EN"
 "http://www.w3.org/TR/2001/REC-SVG-20010904/DTD/svg10.dtd">
<svg version="1.0" xmlns="http://www.w3.org/2000/svg"
 width="513.000000pt" height="96.000000pt" viewBox="0 0 513.000000 96.000000"
 preserveAspectRatio="xMidYMid meet">

<g transform="translate(0.000000,96.000000) scale(0.100000,-0.100000)"
fill="#000000" stroke="none">
<path d="M361 944 c-87 -23 -167 -72 -231 -141 -33 -35 -60 -69 -60 -76 0 -28
80 -145 148 -218 110 -117 243 -199 323 -199 27 0 29 2 23 27 -14 63 -28 101
-56 147 -16 26 -27 50 -25 53 8 7 66 -82 92 -140 13 -29 24 -44 24 -35 1 27
-29 97 -66 157 -19 29 -32 55 -30 57 5 6 49 -58 86 -126 17 -30 31 -50 31 -43
0 21 -37 97 -73 151 -20 28 -32 52 -29 52 14 0 112 -155 132 -208 31 -82 27
-121 -18 -164 -20 -20 -50 -42 -65 -47 -81 -31 -258 67 -407 225 -59 62 -122
147 -133 177 -19 53 -34 -125 -18 -206 46 -220 250 -387 471 -387 66 0 167 23
219 49 103 53 209 169 195 214 -29 93 -199 278 -319 348 -54 32 -149 64 -164
55 -20 -13 13 -116 69 -213 l22 -38 -32 35 c-17 19 -47 67 -66 105 -27 54 -34
62 -28 35 8 -42 47 -122 81 -168 14 -18 23 -35 20 -38 -7 -7 -57 63 -95 131
-18 33 -30 49 -26 35 9 -35 41 -97 76 -147 16 -24 25 -43 20 -43 -15 0 -103
138 -129 199 -12 31 -23 74 -23 96 0 35 6 47 43 83 55 54 92 61 169 34 121
-43 298 -191 389 -326 24 -36 47 -66 50 -66 4 0 9 21 11 48 30 335 -281 602
-601 516z"/>
<path d="M50 684 c0 -41 161 -254 193 -254 6 0 -7 19 -29 43 -54 56 -95 111
-132 177 -22 37 -32 48 -32 34z"/>
<path d="M30 644 c0 -37 162 -239 214 -266 11 -6 -13 25 -54 69 -41 44 -91
107 -110 141 -31 54 -50 75 -50 56z"/>
<path d="M2921 618 c-12 -31 4 -60 31 -56 29 4 46 33 32 56 -17 27 -53 27 -63
0z"/>
<path d="M1680 450 l0 -180 30 0 30 0 0 180 0 180 -30 0 -30 0 0 -180z"/>
<path d="M2050 450 l0 -180 30 0 c17 0 30 5 30 11 0 5 10 3 22 -5 71 -50 168
17 168 114 0 97 -97 164 -168 114 l-22 -15 0 70 0 71 -30 0 -30 0 0 -180z
m170 0 c27 -27 27 -90 0 -115 -45 -41 -110 -6 -110 60 0 24 7 39 26 54 33 26
58 27 84 1z"/>
<path d="M3950 450 l0 -180 30 0 30 0 0 83 c0 72 3 87 20 102 16 15 26 17 48
9 26 -9 27 -11 30 -102 l3 -92 29 0 30 0 0 96 c0 93 -1 96 -30 126 -31 31 -64
35 -112 13 -16 -6 -18 0 -18 59 l0 66 -30 0 -30 0 0 -180z"/>
<path d="M4910 450 l0 -180 30 0 30 0 0 83 c0 72 3 87 20 102 16 15 26 17 48
9 26 -9 27 -11 30 -102 l3 -92 29 0 30 0 0 96 c0 93 -1 96 -30 126 -31 31 -64
35 -112 13 -16 -6 -18 0 -18 59 l0 66 -30 0 -30 0 0 -180z"/>
<path d="M778 535 c35 -38 84 -103 110 -143 25 -41 48 -69 50 -63 9 26 -103
174 -183 242 -29 25 -23 15 23 -36z"/>
<path d="M2778 558 c-2 -23 -10 -36 -25 -43 -30 -13 -32 -55 -3 -55 18 0 20
-7 20 -70 0 -62 3 -74 25 -95 15 -16 36 -25 55 -25 25 0 30 4 30 24 0 18 -6
25 -22 28 -21 3 -23 9 -26 71 -3 66 -3 67 23 67 20 0 25 5 25 25 0 20 -5 25
-25 25 -22 0 -25 4 -25 40 0 36 -3 40 -24 40 -21 0 -25 -6 -28 -32z"/>
<path d="M768 495 c28 -33 72 -95 99 -137 28 -43 52 -75 55 -72 13 12 -61 121
-130 193 -67 69 -69 70 -24 16z"/>
<path d="M1220 507 c-36 -18 -70 -74 -70 -116 0 -69 61 -131 127 -131 34 0 88
31 103 59 9 18 7 21 -15 27 -19 5 -32 1 -49 -15 -28 -26 -46 -27 -80 0 -67 53
-2 171 69 125 14 -9 25 -20 25 -25 0 -11 38 -2 46 10 9 15 -15 48 -46 64 -35
18 -76 19 -110 2z"/>
<path d="M1475 510 c-61 -25 -90 -105 -62 -173 18 -41 68 -77 110 -77 36 0 83
25 97 50 22 40 -15 55 -50 20 -26 -26 -64 -26 -90 0 -41 41 -28 50 71 50 l91
0 -7 36 c-9 51 -31 81 -67 93 -36 13 -65 13 -93 1z m89 -56 c27 -27 18 -34
-44 -34 -33 0 -60 3 -60 7 0 3 7 15 17 25 20 22 66 24 87 2z"/>
<path d="M1855 510 c-61 -25 -90 -105 -62 -173 18 -41 68 -77 110 -77 36 0 83
25 97 50 22 40 -15 55 -50 20 -26 -26 -64 -26 -90 0 -41 41 -28 50 71 50 l91
0 -7 36 c-9 51 -31 81 -67 93 -36 13 -65 13 -93 1z m89 -56 c27 -27 18 -34
-44 -34 -33 0 -60 3 -60 7 0 3 7 15 17 25 20 22 66 24 87 2z"/>
<path d="M2555 509 c-46 -26 -58 -64 -24 -74 15 -5 25 -1 36 15 21 29 77 25
81 -7 3 -17 -3 -22 -27 -27 -17 -3 -44 -9 -61 -12 -59 -11 -78 -77 -35 -119
28 -29 63 -32 105 -10 17 9 30 11 30 5 0 -5 11 -10 25 -10 25 0 25 0 25 94 0
84 -3 98 -23 121 -26 31 -98 44 -132 24z m95 -153 c0 -31 -22 -48 -57 -44 -38
4 -41 49 -3 59 48 13 60 10 60 -15z"/>
<path d="M3083 500 c-85 -51 -81 -179 6 -225 111 -57 227 74 161 182 -37 61
-108 79 -167 43z m90 -41 c30 -16 37 -28 37 -71 0 -28 -6 -42 -26 -57 -15 -12
-32 -21 -39 -21 -7 0 -24 9 -39 21 -20 15 -26 29 -26 57 0 42 6 54 35 70 25
14 32 15 58 1z"/>
<path d="M3382 504 c-12 -8 -22 -10 -22 -5 0 6 -13 11 -30 11 l-30 0 0 -120 0
-120 30 0 30 0 0 83 c0 72 3 87 20 102 16 15 26 17 48 9 26 -9 27 -11 30 -102
l3 -92 29 0 30 0 0 90 c0 49 -5 100 -11 113 -20 44 -85 60 -127 31z"/>
<path d="M3750 507 c-36 -18 -70 -74 -70 -116 0 -69 61 -131 127 -131 34 0 88
31 103 59 9 18 7 21 -15 27 -19 5 -32 1 -49 -15 -28 -26 -46 -27 -80 0 -67 53
-2 171 69 125 14 -9 25 -20 25 -25 0 -11 38 -2 46 10 9 15 -15 48 -46 64 -35
18 -76 19 -110 2z"/>
<path d="M4710 507 c-36 -18 -70 -74 -70 -116 0 -69 61 -131 127 -131 34 0 88
31 103 59 9 18 7 21 -15 27 -19 5 -32 1 -49 -15 -28 -26 -46 -27 -80 0 -67 53
-2 171 69 125 14 -9 25 -20 25 -25 0 -11 38 -2 46 10 9 15 -15 48 -46 64 -35
18 -76 19 -110 2z"/>
<path d="M2330 390 l0 -120 30 0 30 0 0 73 c0 80 15 107 58 107 18 0 22 6 22
30 0 35 -21 40 -58 14 -20 -14 -22 -14 -22 0 0 11 -10 16 -30 16 l-30 0 0
-120z"/>
<path d="M2920 390 l0 -120 30 0 30 0 0 120 0 120 -30 0 -30 0 0 -120z"/>
<path d="M4210 430 c0 -88 16 -142 48 -159 29 -16 74 -14 100 5 12 8 22 10 22
5 0 -6 11 -11 25 -11 l25 0 0 120 0 120 -30 0 -30 0 0 -85 c0 -79 -2 -86 -25
-101 -23 -15 -27 -15 -50 0 -23 15 -25 22 -25 101 l0 85 -30 0 -30 0 0 -80z"/>
<path d="M4480 390 l0 -120 30 0 30 0 0 73 c0 80 15 107 58 107 18 0 22 6 22
30 0 35 -21 40 -58 14 -20 -14 -22 -14 -22 0 0 11 -10 16 -30 16 l-30 0 0
-120z"/>
<path d="M3583 343 c-19 -7 -16 -60 3 -67 9 -3 19 -6 24 -6 11 0 40 29 40 40
0 13 -30 40 -43 39 -7 0 -18 -3 -24 -6z"/>
</g>
</svg>
