<svg xmlns="http://www.w3.org/2000/svg" viewBox="120 65 130 80">
  <path d="M129.539062 139.394531L138.148438 129.597656L144.308594 129.597656L150.734375 124.660156L155.097656 119.726562L159.6875 119.726562L163.128906 115.144531L172.996094 113.378906C172.996094 113.378906 182.226562 105.6875 185.398438 106.546875C192.902344 108.578125 188.8125 104.796875 202.460938 112.421875C206.804688 114.851562 212.25 117.691406 214.003906 118.425781C215.761719 119.160156 222.554688 119.28125 222.554688 119.28125L229.730469 125.160156L234.671875 128.835938L239.296875 132.753906L242.648438 133L246.632812 139.394531Z"/>
  <path d="M186.425781 69.4375L189.746094 69.4375L189.746094 119.3125L186.425781 119.3125Z"/>
  <path d="M174.566406 82.8125L174.566406 79.492188L201.605469 79.492188L201.605469 82.8125Z"/>
  <path d="M160.605469 86.734375L163.046875 86.734375L163.046875 123.445312L160.605469 123.445312Z"/>
  <path d="M151.875 96.578125L151.875 94.136719L171.777344 94.136719L171.777344 96.578125Z"/>
  <path d="M213.441406 86.734375L215.882812 86.734375L215.882812 123.445312L213.441406 123.445312Z"/>
  <path d="M204.710938 96.578125L204.710938 94.136719L224.613281 94.136719L224.613281 96.578125Z"/>
  <style>
    path { fill: #1e293b; }
    @media (prefers-color-scheme: dark) {
      path { fill: #f9f7f1; }
    }
  </style>
</svg>
